<svg id="Layer_1" data-name="Layer 1" xmlns="http://www.w3.org/2000/svg" width="476.24mm" height="476.24mm" viewBox="0 0 1349.96 1349.96"><defs><style>.cls-1,.cls-2{fill:#fff;}.cls-1{stroke:#1d1d1b;stroke-miterlimit:10;stroke-width:0.25px;}</style></defs><title>icon__border-arrow--right</title><path class="cls-1" d="M910,701.94a16.68,16.68,0,0,0,0-23.59L842.6,611h0L631.66,400a16.68,16.68,0,0,0-23.59,0l-55.6,55.6a16.68,16.68,0,0,0,0,23.59L751.61,678.35a16.68,16.68,0,0,1,0,23.59L552.47,901.09a16.68,16.68,0,0,0,0,23.59l55.6,55.6a16.68,16.68,0,0,0,23.59,0L842.6,769.34h0Z"/><path class="cls-2" d="M1293.27,0H56.69A56.86,56.86,0,0,0,0,56.69V1293.27A56.86,56.86,0,0,0,56.69,1350H1293.27a56.86,56.86,0,0,0,56.69-56.69V56.69A56.86,56.86,0,0,0,1293.27,0Zm-54.61,1182a56.86,56.86,0,0,1-56.69,56.69H168A56.86,56.86,0,0,1,111.3,1182V168A56.86,56.86,0,0,1,168,111.3H1182A56.86,56.86,0,0,1,1238.66,168V1182Z"/></svg>