<?xml version="1.0" encoding="utf-8"?>
<!-- Generator: Adobe Illustrator 19.0.0, SVG Export Plug-In . SVG Version: 6.00 Build 0)  -->
<svg version="1.1" id="Warstwa_1" xmlns="http://www.w3.org/2000/svg" xmlns:xlink="http://www.w3.org/1999/xlink" x="0px" y="0px"
	 viewBox="0 0 225 225" style="enable-background:new 0 0 225 225;" xml:space="preserve">
<style type="text/css">
	.st0{clip-path:url(#SVGID_2_);fill:#FFFFFF;}
</style>
<g>
	<defs>
		<rect id="SVGID_1_" width="225" height="225"/>
	</defs>
	<clipPath id="SVGID_2_">
		<use xlink:href="#SVGID_1_"  style="overflow:visible;"/>
	</clipPath>
	<path class="st0" d="M104,0h17c0.9,0.3,1.9,0.7,2.8,0.8c46.4,5.1,83.5,35.8,96.6,80.5c2.1,7.1,3.1,14.5,4.6,21.8v19
		c-0.3,0.8-0.7,1.5-0.8,2.3c-6.4,47.5-32.5,79.2-77.5,95.2c-8.2,2.9-17.1,3.8-25.7,5.6h-17c-0.9-0.3-1.9-0.7-2.8-0.8
		c-46.3-4.9-83.5-35.8-96.6-80.4C2.5,136.7,1.5,129.3,0,122v-19c0.3-0.8,0.7-1.5,0.8-2.3C7.2,53.2,33.3,21.5,78.3,5.6
		C86.5,2.6,95.4,1.8,104,0 M206.2,112.5c0-51.8-41.8-93.6-93.6-93.7c-51.8,0-93.6,41.7-93.8,93.5c-0.1,52,41.8,94,93.9,93.9
		C164.6,206.1,206.2,164.3,206.2,112.5"/>
	<path class="st0" d="M94,112.6c0-10.7-0.2-21.3,0.1-32c0.1-2.3,1.3-5.6,3.1-6.5c1.7-0.9,5.2,0,7,1.3c14.9,10.6,29.7,21.4,44.5,32.2
		c4.3,3.2,4.4,6.9,0,10.2c-15,11-30.1,22-45.3,32.8c-4.8,3.5-9.4,1-9.5-5C93.9,134.6,94,123.6,94,112.6"/>
</g>
</svg>
