<svg id="Layer_1" data-name="Layer 1" xmlns="http://www.w3.org/2000/svg" width="1349.97" height="1350" viewBox="0 0 1349.97 1350"><defs><style>.cls-1{fill:#fff;}</style></defs><title>icon__bordered-mail</title><path class="cls-1" d="M1293.28,0H56.69A56.86,56.86,0,0,0,0,56.69V1293.28A56.86,56.86,0,0,0,56.69,1350H1293.28a56.86,56.86,0,0,0,56.69-56.69V56.69A56.86,56.86,0,0,0,1293.28,0Zm-54.61,1182a56.86,56.86,0,0,1-56.67,56.7H168a56.86,56.86,0,0,1-56.7-56.7V168A56.86,56.86,0,0,1,168,111.3H1182a56.86,56.86,0,0,1,56.66,56.7V1182h0Z"/><path class="cls-1" d="M362.73,592.77c79,55.56,157.16,111,236,165.61,14.19,9.82,30.6,16.88,46.74,23.33,20.05,8,41.39,8.37,60.94-.89,21.72-10.28,43.17-21.74,63-35.19,57.64-39,114.52-79.14,171.5-119.12,15.44-10.84,30.14-22.73,46-34.78,0.22,3.15.65,6.58,0.66,10q0.05,128.49,0,257c0,40.09-22.28,62.24-62.24,62.24q-250.29,0-500.57,0c-40,0-62.4-22.17-62.45-62.1q-0.15-128.49,0-257C362.34,598.59,362.62,595.29,362.73,592.77Z"/><path class="cls-1" d="M674.89,429.51c83,0,166.12,1.17,249.13-.5,41-.82,77.44,32.17,58.41,85.41-9.34,26.13-26.91,46.5-49.08,62.2-68.63,48.61-138.23,95.85-206.62,144.8-35.31,25.28-68,25.36-103.37,0-68.35-49-138.25-95.85-206.24-145.33-17-12.36-30.08-30.62-43.2-47.54-10.86-14-13-31.29-10.6-49,4.27-31.45,25.39-50,57.95-50.07Q548.08,429.36,674.89,429.51Z"/></svg>