<svg id="Layer_1" data-name="Layer 1" xmlns="http://www.w3.org/2000/svg" width="59.38mm" height="38mm" viewBox="0 0 168.33 107.71"><title>icon__activities--bird-watching</title><path d="M77.26,35.68c-0.83-2.92-.94-6.12-2-9-0.54-1.43-4.53-6.15-3.46-7.58,1.23-1.65,6.74,1.48,8.06,2,2.78,1.18,5.42,2.2,7.65,4.32,2.47,2.34,4.26,5.19,7.28,6.91l0,0c3.47-.52,7.51.3,10.9-0.54,1.72-.43,3.71-0.26,5.37-0.82s2.58-2.12,3.68-3.28c0.89-.94,2.61-3.85,4.11-3.18,0.2,1.54,1.66-.5,1.94-1.06,0.52-1.06.83-2.24,1.32-3.32a44.84,44.84,0,0,0,2.33-6.74c3.36,1.56.46,6.61,0.3,9,2.91-.64,4.82-5.44,6.23-7.81a108.87,108.87,0,0,0,4.83-10c0.55-1.2,1.31-5.09,3.15-4.53,1.77,0.35-.67,12-4.82,16.88-0.71.84-2.34,2.56-2,3.72a69.84,69.84,0,0,0,7.94-6.6c2.62-2.66,4.5-5.79,6.57-8.86,0.72-1.07,3.69-5.74,4.24-2.44,0.53,3.15-2,7.65-3.7,10.11-2,2.91-4.75,5.37-7.05,8.07,1.59,0.32,2.74-.9,4.09-1.43,1.64-.65,3-0.66,4.38-1.89,2.34-2.07,4.65-4.17,7-6.23a13.74,13.74,0,0,1,3.93-2.55c2.84,1.95-1.18,5.1-3,7.54a17.67,17.67,0,0,1-2.32,3c-1.07.92-2.43,1.5-3.56,2.36s-2.87,1.7-3.85,2.9c2.19,1.13,5.84,0,8.14-.53,2.65-.63,5-2.49,7.42-3.65a9.53,9.53,0,0,1,4-1.3c2.62,2.5-5.6,7.21-9.65,10a16.79,16.79,0,0,0-3.08,2.26c2.52,0.17,5,.18,7.57.18a25.49,25.49,0,0,0,3.7-.15c1-.16,2.43-0.7,3.29.15,1,1.45-3,3.88-5.55,5a32.83,32.83,0,0,1-7.64,2,26.54,26.54,0,0,1-4.35.3c1.82,0.45,1.57,2.33,1.53,3.08-0.07,1.54-1.52,2.59-1.5,4a2.52,2.52,0,0,1,1.64,3.64c-1,1.59-2.87.47-4.21,1.44,1.09,1.1,2.95,3.31,3,4.86,0.14,2.59-2.45,2.36-4.3,2.3,0.44,1.49.71,3.58-.84,4.54s-3.59.19-5.13,0.07c0.86,3.52-3.61,3.86-6.09,3.11-0.16,2.81-4,1.27-5.41,1.28-1.17,0-1.63.7-2.91,0.21s-1.3-1.33-2.21-2.07c-1.51,2.12-4.19-.88-5.09-2.19-2,2.4-3.73-1.72-5-2.18a15.52,15.52,0,0,0,2.81,3.71c1.48,1.28,3,2.52,4.48,3.75,2.64,2.15,7.28,3.11,9.17,6.12,0.94,1.5.67,4.63-1.23,5.37l-0.1,0c1.66,0.65,3.09,4.27,2.16,5.89-1.18,2-4.79.8-6.14-.37,0.29,2.74,4.58,17.27-2.66,14l-0.17.16a4.69,4.69,0,0,1-1.95,4.78c-1.66.82-3.34-.78-4.58-1.68,0.17,1.69,0,4.4-2,4.93a4.22,4.22,0,0,1-4.41-2.11c-0.06,2.08-2.15,2.43-3.84,1.9-1.89-.6-2.27-2.33-2.46-4.12-1.15,2.12-2.78,2.38-4.67,1s-1.82-2.8-1.86-5c-1.37,1.3-3.75.33-4.5-1-1.12-2-1.06-3.64-1.14-5.82-1.55,1-2.57,1.71-4.35.5a5.53,5.53,0,0,1-2.21-5c-2-.17-2.66-2.46-2.83-4.17-0.18-1.9.87-3.38,1.8-5,2.24-3.82,5-6.1,8.2-9.05,1-1,4.06-3,3.11-4.65-1.54-.78-1.44,2-2.3,2.69-1.28,1-2.36,0-3.44-.62-0.72,2.66-3.38,4.25-5.64,1.94-0.47,1.39-1.91,1.48-3.17,1.46-1.51,0-2-.84-3.23-1.31-0.33,1.36-1.84,1.35-2.94,1.45-1.63.16-1.92-.16-3.18-1.12-1,2.55-4.1.67-5.65-.52-1.86,3-10.06.19-10-3.38-3.44,1.22-9.51.7-9.36-4.3a6.55,6.55,0,0,1-5.61-.45c-1.31-.63-3.44-1.94-2.86-3.7-2.28-.61-8.49-3.55-6.81-6.86v0.1c-2.77.15-5.88-.68-8.64-0.71a18,18,0,0,1-8.12-1.46A13.33,13.33,0,0,1,10.14,46a9.64,9.64,0,0,1,4.62-.68c1.12,0,3,.29,2.37-1.2-1-2.3-7.58-2-9.63-3.34-1.43-.9-4-1.29-3.56-4.12,4.46,0,8.76,3.51,13.44,3,0.2-1.5-6.21-3.26-7.53-3.92C7.12,34.38,4.26,33.32,2.3,31c-0.82-1-3.17-3.17-2-4,1.92,0.18,4.51,2.31,6.11,3.39a40.85,40.85,0,0,0,6.87,3.91,10.06,10.06,0,0,0,4.35,1.12c-5.59-4-12.48-8.79-14.88-14.63-1.22-3,.57-3.18,2.24-0.94a53.79,53.79,0,0,0,5.73,7.07,45.13,45.13,0,0,0,7.66,6.26C19,33.69,8.22,22.59,7.4,17.66c-0.52-3.12.53-2.9,2-.55,1.74,2.82,3.41,5.47,5.35,8.17a33.39,33.39,0,0,0,6,6.82c-0.9-1.15-5.46-6.53-3.86-8,1.43,1,1.34,2.88,2.83,3.87s3.18,2,4.7,3,2.89,2.37,4.78,3a36.45,36.45,0,0,0,6.07,1A63.34,63.34,0,0,0,42,35.5c-0.69-.61-2.41-1-2.49-2,2.18,0,4.81,1.31,7,1.74a39,39,0,0,0,7.56.32c4.93,0,9.86.52,14.76,0.29,2.7-.13,5.63-0.16,8.33-0.15h0.06Z"/></svg>