<svg id="Layer_1" data-name="Layer 1" xmlns="http://www.w3.org/2000/svg" width="470.66" height="467.13" viewBox="0 0 470.66 467.13"><title>icon__activities--canoe-safaris</title><path d="M103.86,329.49c11.87-34.32,29.91-64.67,59.2-87.38,3.39-2.63,4.7-4.75,3.87-9.3-3.36-18.25.73-35.49,9.21-51.62,14.73-28,37.37-48.19,64.38-63.89,1.15-.67,2.3-1.33,3.45-2a3.15,3.15,0,0,0,.49-0.66c-2.32-6.52-4.43-12.77-11.81-16.48a52.8,52.8,0,0,1-25.28-27.26c-6.73-15.81-12.88-31.73-15-48.95-0.8-6.37,1.36-11,6.87-14.24A54.1,54.1,0,0,1,224.74,0c5.08-.22,9.44,1.28,12.47,5.85a183.2,183.2,0,0,1,24.32,53.9c3.05,11.37.08,22-3.94,32.63a10.68,10.68,0,0,0-.1,7.34q48,108.63,96.46,217.1c0.89,2,2.3,4.42,4.11,5.27,17.82,8.42,29,22.46,35.11,40.83,3.6,10.88,6.77,21.9,10.11,32.87,1.13,3.71.15,6-3.84,7.58-47.17,19.11-92.64,16.77-137.08-8.93-30.08-17.4-60-35.26-92.36-48.32a246.44,246.44,0,0,0-32.12-10.73C126.94,332.66,115.63,331.47,103.86,329.49ZM323.09,290.4L256.62,141.14c-24.2,14-44.49,31-56.35,56.27-10.69,22.74-6.89,42.42,11.49,59.89,22.9,21.77,50.44,33,82,34.13C303.09,291.75,312.53,290.81,323.09,290.4Zm11.32,26.26c-5.51.92-10.72,2.06-16,2.63-34.62,3.78-67.27-2.42-97.6-19.81-2.56-1.47-4.31-1.37-6.66.43-9.83,7.57-16.35,17.41-20.31,29-2.49,7.33-1.45,9.3,6.12,10.71a540.19,540.19,0,0,1,133.77,43.81c2.74,1.3,5.5,2.57,8.77,4.1a22.23,22.23,0,0,0-.52-2.25c-0.54-1.4-1.11-2.78-1.69-4.16-6.18-14.74-10.58-29.82-3.33-45.31C340.39,328.55,338.32,322.89,334.41,316.66Z"/><path d="M97.17,378.76c-29,.87-55.34,9.27-80.14,23.08-3.78,2.1-7.25,4.76-11.06,6.78-1.39.74-4.26,1.1-4.85,0.36-1-1.23-1.53-4.08-.75-5.23,3.14-4.66,6.31-9.53,10.44-13.24,26.49-23.82,57.48-37.12,93.3-37.47,21.47-.21,42,5.6,61.19,14.74,24.91,11.87,49.24,25,73.65,37.84,19,10,36.92,22.13,58.11,27.25,57.86,14,109.12,1.63,153-39,4.46-4.13,7.73-9.54,11.79-14.14,1.26-1.42,3.37-3,5-2.9,1.3,0.07,3.41,2.5,3.52,4,0.3,4.39.6,9.06-.55,13.22-6.13,22.17-20.42,37.74-40.52,48.26-36.59,19.14-75.43,27.93-116.66,23.85-28.32-2.8-54-13.65-78.19-28.31-20.21-12.24-40.46-24.44-61-36.05C154.36,391,134.16,382.89,112.22,380,107.12,379.27,101.94,379.12,97.17,378.76Z"/><path d="M243.07,260.35c-17.49,0-32.11-14.83-32-32.37A32.25,32.25,0,1,1,243.07,260.35Z"/></svg>