<svg id="Layer_1" data-name="Layer 1" xmlns="http://www.w3.org/2000/svg" width="95.23mm" height="148.26mm" viewBox="0 0 269.94 420.26"><title>icon__activities--walking-safaris</title><path d="M191,396.71c-1.66,4.6-3,8.31-4.33,12-2.19,5.91-6.24,8.5-10.76,6.92-4.95-1.73-6.51-6.11-4.28-12.41q26.43-74.53,52.91-149c3.89-10.95,7.75-21.9,11.76-33.21-4.28-2.62-8.36-5.14-12.45-7.62-13.66-8.29-27.48-16.34-40.92-25-4.47-2.87-8.33-6.93-11.86-11-3.89-4.46-7.07-9.52-11.32-15.38-1.58,9.37-3,17.47-4.32,25.59-3.47,21-6.84,42.05-10.42,63a11.17,11.17,0,0,0,2.2,9.18c12.75,17.7,25.24,35.59,38,53.28,2,2.8,2.2,5,1.07,8.2-5.35,15-10.43,30.05-15.81,45.67-1.16-1.3-2-2.07-2.61-3q-38.88-54.19-77.71-108.42c-2.32-3.24-4.36-6.69-6.49-10.07-5.88-9.34-7.23-19.43-5.43-30.23,5.38-32.17,10.59-64.37,15.91-96.55,0.57-3.44,1.27-6.88,2.15-10.25,2.47-9.42,11.32-16.61,21.18-15.64,16.39,1.61,32.69,4.15,49,6.57,1.61,0.24,3.23,2.16,4.34,3.67,11,15,21.89,30.21,32.93,45.24a21,21,0,0,0,5.75,5.33c15.87,9.79,31.76,19.54,47.81,29,8.33,4.93,13.37,11.68,12.63,21.5s-6.2,16.17-15.57,19.34a6,6,0,0,0-3.11,3.37q-20.79,58.27-41.27,116.65a7.4,7.4,0,0,0,1,5.74c8.12,11.8,16.5,23.41,24.75,35.12,7.9,11.21,6.12,24.41-4.22,31.76s-23.32,4.58-31.34-6.68Z"/><path d="M76,98.32c-1.88,11.41-3.95,24.06-6,36.7-3.56,21.51-7.05,43-10.76,64.52-1.79,10.4-9,15.09-19.15,12.64Q26,208.77,12,205.06C2.65,202.57-2,194.74.79,185.54q14.08-47.09,28.49-94.09c2.84-9.24,11.49-14.18,21.12-12.68,4.44,0.69,8.91,1.29,13.28,2.28C71.32,82.78,76.18,89.25,76,98.32Z"/><path d="M73.8,260.86c11,14.59,21.52,28.5,31.84,42.59,1.08,1.47,1.31,4,1,5.95-1.67,11.74-6.58,21.86-13.8,31.45-16.93,22.46-33,45.55-49.5,68.35-5.22,7.22-12.32,10.66-21.2,9.32s-14.89-6.46-17.56-15C2.27,396,4,389.18,8.68,382.8q25.53-35.15,50.74-70.54a24.45,24.45,0,0,0,3.65-8c3.44-13.54,6.62-27.14,9.9-40.71C73.15,262.77,73.43,262,73.8,260.86Z"/><path d="M141.91,0a36.52,36.52,0,0,1-.26,73A36.52,36.52,0,1,1,141.91,0Z"/></svg>