<svg id="Layer_1" data-name="Layer 1" xmlns="http://www.w3.org/2000/svg" width="27.52mm" height="26.78mm" viewBox="0 0 78.01 75.92"><title>icon__activities--star-gazing</title><path d="M23.15,0a40.16,40.16,0,0,0,5.66,33.47c0.69-1.39,1.23-2.63,1.92-3.79a2.27,2.27,0,0,1,1.39-1.19,2.43,2.43,0,0,1,1.48,1.24,54.13,54.13,0,0,1,2.79,5.69,2.94,2.94,0,0,0,2.89,1.92c2.18,0.22,4.34.58,6.49,1a1.69,1.69,0,0,1,1.16.95,1.92,1.92,0,0,1-.51,1.45c-1.4,1.58-2.88,3.09-4.4,4.7a38.86,38.86,0,0,0,17.65,5.09A40.06,40.06,0,0,0,78,47a39.63,39.63,0,0,1-38.74,28.9C20.36,75.76,3.69,61.56.6,43.22A39.79,39.79,0,0,1,23.15,0Zm5.69,33.49a25.79,25.79,0,0,0-1.16,2.38,2,2,0,0,1-1.84,1.41c-2.37.32-4.73,0.67-7.1,1-1.37.17-1.87,1.14-1.07,2.25a7.29,7.29,0,0,0,.88,1c1.6,1.55,3.24,3.07,4.81,4.67a1.81,1.81,0,0,1,.45,1.34c-0.36,2.44-.86,4.87-1.21,7.31A2.22,2.22,0,0,0,23,56.56a2.19,2.19,0,0,0,1.83-.11c2.19-1.06,4.34-2.21,6.47-3.38a1.58,1.58,0,0,1,1.75,0c2.13,1.17,4.28,2.32,6.47,3.38a2.22,2.22,0,0,0,1.83.06,2.08,2.08,0,0,0,.39-1.68c-0.29-2.09-.64-4.18-1.07-6.25-0.27-1.3-.37-2.45,1.15-3.24A40.93,40.93,0,0,1,28.84,33.49Z"/><path d="M66.4,36.29a38.4,38.4,0,0,1-4.23-.94,2.51,2.51,0,0,0-3,.72,36.17,36.17,0,0,1-3,2.77c-0.86.76-1.56,0.51-1.7-.66-0.18-1.51-.3-3-0.4-4.54a1.88,1.88,0,0,0-1.16-1.75c-1.32-.65-2.6-1.4-3.86-2.17a1.48,1.48,0,0,1-.76-0.92,1.63,1.63,0,0,1,.86-1c1.44-.69,2.94-1.25,4.37-1.94a1.85,1.85,0,0,0,.88-1.07c0.39-1.54.64-3.13,1-4.68a1.54,1.54,0,0,1,.73-1.05,1.62,1.62,0,0,1,1.18.57c1,1.1,2,2.31,3.05,3.38a2.23,2.23,0,0,0,1.51.6c1.51-.07,3-0.35,4.53-0.46a1.69,1.69,0,0,1,1.33.38,1.84,1.84,0,0,1-.27,1.4c-0.7,1.3-1.54,2.53-2.21,3.84a2.18,2.18,0,0,0-.08,1.6c0.6,1.52,1.36,3,2,4.47C67.53,35.72,67.1,36.34,66.4,36.29Z"/><path d="M41.48,15.37a25.47,25.47,0,0,1-2.52.87A2,2,0,0,0,37.21,18,12.7,12.7,0,0,1,36.62,20c-0.23.67-.73,0.75-1,0.17-1.13-2.39-3-3.14-5.5-2.72a0.48,0.48,0,0,1-.42-0.85c1.91-1.81,2.09-3.79.89-6.07-0.33-.62.26-1,0.78-0.68,2.28,1.25,4.18.82,5.92-1a0.52,0.52,0,0,1,.93.45c-0.53,2.74.74,4.42,3,5.58A1.73,1.73,0,0,1,41.48,15.37Z"/></svg>