<svg id="Layer_1" data-name="Layer 1" xmlns="http://www.w3.org/2000/svg" width="1349.97" height="1350.01" viewBox="0 0 1349.97 1350.01"><defs><style>.cls-1{fill:#fff;}</style></defs><title>icon__bordered-plus</title><path class="cls-1" d="M1293.28,0H56.69A56.86,56.86,0,0,0,0,56.69V1293.28A56.86,56.86,0,0,0,56.69,1350H1293.28a56.86,56.86,0,0,0,56.69-56.69V56.69A56.86,56.86,0,0,0,1293.28,0Zm-54.61,1182A56.86,56.86,0,0,1,1182,1238.7H168A56.86,56.86,0,0,1,111.3,1182V168A56.86,56.86,0,0,1,168,111.3H1182a56.86,56.86,0,0,1,56.66,56.7V1182Z"/><path class="cls-1" d="M931,611V739c-2.86,6-7.6,7.95-14.15,7.93-53.79-.17-107.58-0.09-161.38-0.09h-8.64v9.64c0,53.46-.07,106.92.09,160.38,0,6.55-2,11.29-7.93,14.15H611c-6-2.85-8-7.6-7.94-14.15,0.16-54.63.1-109.26,0.1-163.89,0-1.93,0-3.85,0-6.13h-5.62c-54.8,0-109.59-.07-164.39.1-6.56,0-11.29-2-14.15-7.93V611c2.85-6,7.6-8,14.15-7.93,54.63,0.16,109.26.09,163.88,0.08h6.11c0-2.5,0-4.31,0-6.12,0-54.63.07-109.26-.08-163.88,0-6.55,2-11.29,7.93-14.15H739c6,2.86,8,7.59,7.93,14.15-0.17,54.8-.1,109.59-0.1,164.39,0,1.76,0,3.52,0,5.62h6.63c54.46,0,108.93.07,163.39-.09C923.38,603,928.13,605,931,611Z"/></svg>