<svg id="Layer_1" data-name="Layer 1" xmlns="http://www.w3.org/2000/svg" width="590.06" height="367.31" viewBox="0 0 590.06 367.31"><defs><style>.cls-1{fill:#787878;}</style></defs><title>icon__arrow--down</title><path class="cls-1" d="M283.23,362.42a16.68,16.68,0,0,0,23.59,0h0L374.17,295h0l211-210.94a16.68,16.68,0,0,0,0-23.59h0l-55.6-55.6a16.68,16.68,0,0,0-23.59,0h0L306.82,204a16.68,16.68,0,0,1-23.59,0h0L84.08,4.89a16.68,16.68,0,0,0-23.59,0h0L4.89,60.49a16.68,16.68,0,0,0,0,23.59h0L215.83,295h0Z"/></svg>