<svg id="Layer_1" data-name="Layer 1" xmlns="http://www.w3.org/2000/svg" width="93.7mm" height="90.77mm" viewBox="0 0 265.59 257.29"><title>icon__activities--night-drives</title><path d="M10.92,215.28V197c7.1-1.82,9.11-4.42,9.11-11.7,0-6.45,0-12.9,0-19.53l6.39-.32c0-5.82.15-11.55,0-17.26A21.05,21.05,0,0,1,30,135.7c5.54-8.55,11-17.18,16.47-25.75,2.72-4.24,6.47-6.54,11.71-6.31,4.4,0.19,8.81,0,13.61,0,0-3.22.07-6.07,0-8.91s0.56-5.33,4.09-5.54c3-.18,4.55,1.65,4.56,5.5q0,33.12,0,66.23c0,1.43,0,2.86,0,4.34l11,2.48c-1.6-6-3.2-11.85-4.71-17.7-0.54-2.08-.95-4.2-1.3-6.33s1.11-3.16,2.74-2.22c2,1.18,4.35,2.79,5.3,4.81,5,10.61,9.76,21.35,14.34,32.15,2.7,6.37,7.12,9.66,14.08,9.55,5.87-.09,11.74,0,17.61-0.06,4.84,0,8.35-2.31,10-6.79,2.84-7.5,5.5-15.07,8-22.69a6.15,6.15,0,0,0-.64-4c-6.66-14.6-13.33-29.2-20.19-43.72-1.41-3-.84-4.13,2.21-5.14,5.47-1.8,5.34-1.94,7.78,3.35,6.21,13.49,12.55,26.92,18.7,40.45,1,2.23,2.3,2.85,4.64,2.85,23.88-.08,47.75-0.05,71.63,0,9.63,0,13.8,4.18,13.81,13.79q0,8.46,0,16.92a3.15,3.15,0,0,0,.16.69,1.45,1.45,0,0,0,.54.43c8.9,0.91,9.43,1.5,9.34,10.66,0,3.6-.32,7.2-0.15,10.78,0.16,3.32-1.31,5.15-4.23,6.12-2.37-3.63-4.53-7.3-7-10.71-16.07-21.82-50.33-19.61-64.41,2.79a46.32,46.32,0,0,0-5,10.63c-0.85,2.72-2.31,3.66-4.77,3.67-6.48,0-13,0-19.44,0-4.9,0-9.8,0-14.7,0-13.17-.11-26.34-0.27-39.51-0.38-2.26,0-5.1,1-6.6-.06s-1.39-4.07-2.26-6.12c-4.4-10.43-11.12-18.55-22.09-22.72-22.43-8.51-44.59,1.46-52.92,24.06-0.63,1.72-1.29,2.59-3.23,2.47C16.64,215.16,14,215.28,10.92,215.28Zm24.14-49.62H71.51V112.19c-4.24,0-8.21.19-12.14-.06-3-.19-4.87,1-6.42,3.51-5.23,8.46-10.66,16.79-15.91,25.24a10.82,10.82,0,0,0-1.89,4.94C34.93,152.27,35.06,158.73,35.06,165.66Zm184.71,12.87h3.6c7.08,0,14.16.06,21.24-.11,1,0,1.94-1.22,2.91-1.87-1-.67-1.88-1.4-2.89-2a3.24,3.24,0,0,0-1.42,0c-16.32,0-32.64,0-49-.05a5.46,5.46,0,0,0-5.23,2.9c-5.45,8.6-11,17.14-16.74,25.55a6.41,6.41,0,0,1-4.24,2.29c-3.45.34-7-.06-10.42,0.22-1.09.09-2.07,1.41-3.11,2.17,1,0.72,2,2,3.08,2.05,4.55,0.17,9.11.09,13.66-.18a4.63,4.63,0,0,0,3-2c5.72-8.71,11.37-17.46,16.88-26.29a4.92,4.92,0,0,1,4.87-2.73C203.93,178.63,211.85,178.53,219.77,178.53Z"/><path d="M60.21,257.29a32,32,0,1,1-.22-64c16.81-.14,32.23,14.69,32,31.44C91.61,245.21,77.07,257,60.21,257.29Zm15.34-31.53c-0.41-9.12-7.28-16.61-14.86-16.21-9.8.52-16.55,7.44-16.13,16.54a15.49,15.49,0,0,0,16.22,14.77C68.78,240.45,75.89,233.19,75.55,225.76Z"/><path d="M223.14,257.05c-17.42.57-32-13.71-32.29-31.52-0.32-16.66,14.62-32,31.71-32.23,16.3-.26,32.33,12.9,32.29,33.31C254.8,241.67,242,257.23,223.14,257.05Zm0-16.18c8.33-.09,15.89-7.62,15.71-15.66s-7.75-15.58-15.55-15.41c-9.23.21-16.35,7.36-16.2,16.27C207.23,234,214.76,241,223.14,240.87Z"/><path d="M17.15,166.92c0,6.6,0,13.19,0,19.79,0,4.82-2.21,7-7,7.11-1.2,0-2.4,0-3.6,0-4.11-.17-6.46-2.39-6.48-6.58q-0.12-20.15,0-40.3c0-4.31,2.46-6.46,6.85-6.56,1.2,0,2.4,0,3.6,0,4.33,0.13,6.58,2.35,6.62,6.76C17.2,153.73,17.15,160.33,17.15,166.92Z"/><path d="M190.81,0h-5.23c-1.44,1-1.58,1.73-.75,3.28a25.61,25.61,0,0,1,1.42,3A52.56,52.56,0,0,1,188.84,36a32.06,32.06,0,0,1-9.47,17.56,42.07,42.07,0,0,1-28,11.44,2.2,2.2,0,0,0-2.14,1,2.09,2.09,0,0,0,.34,2.27c7.29,11.15,17.58,17.76,30.62,20.19,1.68,0.31,3.38.47,5.07,0.7h5.58a1.58,1.58,0,0,1,.32-0.12c1.81-.24,3.64-0.38,5.43-0.73,27.22-5.32,43.23-34,33-59.77-6.11-15.43-17.65-24.71-34-27.93C194,0.36,192.42.22,190.81,0Z"/></svg>