<svg id="Layer_1" data-name="Layer 1" xmlns="http://www.w3.org/2000/svg" viewBox="0 0 1349.97 1349.97"><defs><style>.cls-1,.cls-2{fill:#fff;}.cls-2{stroke:#1d1d1b;stroke-miterlimit:10;stroke-width:0.25px;}</style></defs><title>icon__close</title><path class="cls-1" d="M1293.28,0H56.69A56.86,56.86,0,0,0,0,56.69V1293.28A56.86,56.86,0,0,0,56.69,1350H1293.28a56.86,56.86,0,0,0,56.69-56.69V56.69A56.86,56.86,0,0,0,1293.28,0Zm-54.61,1182A56.86,56.86,0,0,1,1182,1238.7H168A56.86,56.86,0,0,1,111.3,1182V168A56.86,56.86,0,0,1,168,111.3H1182a56.86,56.86,0,0,1,56.66,56.7Z"/><path class="cls-2" d="M746.75,699.95a16.68,16.68,0,0,0,0-23.59h0L679.35,609h0L468.41,398a16.68,16.68,0,0,0-23.59,0h0l-55.6,55.6a16.68,16.68,0,0,0,0,23.59h0L588.36,676.36a16.68,16.68,0,0,1,0,23.59h0L389.22,899.1a16.68,16.68,0,0,0,0,23.59h0l55.6,55.6a16.68,16.68,0,0,0,23.59,0h0L679.35,767.35h0Z"/><path class="cls-2" d="M670.62,767.35h0L881.56,978.29h0a16.68,16.68,0,0,0,23.59,0l55.6-55.6h0a16.68,16.68,0,0,0,0-23.59L761.61,699.95h0a16.68,16.68,0,0,1,0-23.59L960.75,477.19h0a16.68,16.68,0,0,0,0-23.59L905.15,398h0a16.68,16.68,0,0,0-23.59,0L670.62,609h0l-67.4,67.35h0a16.68,16.68,0,0,0,0,23.59Z"/></svg>