<svg id="Layer_1" data-name="Layer 1" xmlns="http://www.w3.org/2000/svg" width="99.28mm" height="96.47mm" viewBox="0 0 281.42 273.47"><title>icon__activities--1</title><path d="M125.76,107c-0.72,8.65-7,12.2-14.18,14.11-8.75,2.33-17.75,3.71-26.6,5.72-3.47.79-7.13,1.59-10.13,3.37-8.21,4.89-17.16,7.29-26.41,8.8-2.73.44-3.92,1.53-4.3,4.21-1.54,10.75-2.58,10.47-12,10.26-6.57-.15-13.13-0.29-19.69-0.58-4.94-.22-8.07-2.84-9-7.73C2.23,138.93,1,132.69.16,126.42c-1-7.61,2.91-13.49,7.8-18.58,5.88-6.12,11.83-12.3,18.46-17.57C36,82.63,44.2,73.95,48.71,62.57c5.81-14.63,17.54-23,30.23-30.52,4.8-2.86,5-3.39,1.45-7.68-1.92-2.3-4-4.47-5.89-6.8C70.35,12.47,69.37,7,71.42,0c2.19,1.24,4.29,2.5,6.44,3.64,7.93,4.21,16.4,7.66,23.66,12.81,5.6,4,11.11,4.45,17.41,4.58,20.06,0.39,39.91,2,58.82,9.82A78.62,78.62,0,0,1,212.4,58.48c9.31,13.08,19,26,27.34,39.65,9.77,16,23.24,27.51,39.23,36.58q1.09,0.62,2.16,1.27a1.88,1.88,0,0,1,.29.51c-3,1.86-6,3.63-8.91,5.62-16.42,11.28-28.18,26.18-32.72,45.71-6.17,26.56-20.51,48-39.66,66.65a89.91,89.91,0,0,1-26.88,18.36c-2.23,1-3.75,1.06-5-1.29-0.72-1.37-1.85-2.52-2.59-3.88-12.09-22.09-21.32-45.12-21.54-70.75-0.14-16.17.49-32.34,0.87-48.51,0.21-8.8-.43-17.43-3.18-25.9C139.23,114.57,135.24,108.37,125.76,107Z"/></svg>