<svg id="Layer_1" data-name="Layer 1" xmlns="http://www.w3.org/2000/svg" width="84" height="77.61" viewBox="0 0 84 77.61"><title>icon__activities--migrations</title><path d="M70.12,29c0.84-4.45-.17-8.3-2.08-12.09a11.53,11.53,0,0,1,2.2-12.77A18.16,18.16,0,0,1,71.7,2.95C77.48,10.3,78.16,21.73,70.12,29Z"/><path d="M34.81,56.83c-0.53,1.94-1.28,4.08-1.69,6.29A8.71,8.71,0,0,0,38,72.86c3.9,1.74,8.64.85,11.1-2.12a12.75,12.75,0,0,0,2.63-6.58c0-.24,0-0.48.08-0.71a0.6,0.6,0,0,1,.12-0.19,10.64,10.64,0,0,1-4.42,12.92C43.1,79,36,77.54,32.78,73.24,28.73,67.84,30.37,61.17,34.81,56.83Z"/><path d="M77.71,22.07c-0.9,7.56-3.4,14.43-9.08,19.78a19.24,19.24,0,0,1-7.75,4.37c-2.6.78-5.19,1.58-7.78,2.37a35.83,35.83,0,0,0-11.73,5.55l-0.21-.22,0.57-.42L42.37,53A39,39,0,0,1,58,45.24a19.81,19.81,0,0,0,9.31-5.36c4.89-4.78,7.91-10.66,10.08-17C77.49,22.57,77.61,22.32,77.71,22.07Z"/><path d="M79.32,24.44a15.08,15.08,0,0,1-.46,10.1,39.83,39.83,0,0,1-4,8A22.75,22.75,0,0,0,71.15,53c-0.2,1.7-.44,3.4-0.73,5.09A7.92,7.92,0,0,1,65,64.19,0.38,0.38,0,0,1,65,64c3.48-2.73,3.94-6.66,4.21-10.66,0.2-2.83.22-5.71,1.52-8.3A23.47,23.47,0,0,1,74,39.91c3.82-4.28,5.13-9.36,5.31-14.88C79.29,24.83,79.31,24.63,79.32,24.44Z"/><path d="M71.5,61.84c2.38-3.11,2.9-6.73,3-10.48A15.61,15.61,0,0,1,78.67,41c2.1-2.29,3.64-4.85,3.62-8.1a9.67,9.67,0,0,1-1.1,7.93,25.25,25.25,0,0,0-3.35,10.35C77.24,55.62,74.72,59,71.5,61.84Z"/><path d="M39.32,52.92A89.58,89.58,0,0,0,46,46a48.43,48.43,0,0,0,5-8A32,32,0,0,1,61.8,25.63c0.18-.12.39-0.21,0.65-0.34A51.57,51.57,0,0,0,58,30.64c-2.09,3.29-3.87,6.78-5.78,10.18-3,5.39-7.58,9.17-12.93,12.09C39.24,52.93,39.14,52.88,39.32,52.92Z"/><path d="M37.74,58.25a8.91,8.91,0,0,0,2.15,5.7,5.55,5.55,0,0,1,1.29,5.23c-0.54,1.87-2.17,2.34-3.57,1a8,8,0,0,1-2.13-7.06A8.11,8.11,0,0,1,37.74,58.25Z"/><path d="M54.87,67.54a45.07,45.07,0,0,0,0-5.65c-0.78-6-6.39-8.72-11.66-5.76a26.12,26.12,0,0,0-3,2.27c0.47-2,3.27-4.22,6.4-4.63,3.43-.45,6.57.19,8.66,3.29C57.13,59.86,57,64.31,54.87,67.54Z"/><path d="M51,44.86c1.83-2.92,4-4.88,7.28-5.46a34.72,34.72,0,0,0,4.33-1.33c-0.09,1.65-2.15,4-4.21,4.6-1.76.48-3.55,0.88-5.31,1.36A21.4,21.4,0,0,0,51,44.86Z"/><path d="M69.95,43.77a9.77,9.77,0,0,1-7.51,7.68,30.87,30.87,0,0,1-4.64.38,47.86,47.86,0,0,1-6.28-.2,35.23,35.23,0,0,1,5.65-1A15,15,0,0,0,67.64,46.3C68.4,45.56,69.08,44.73,69.95,43.77Z"/><path d="M66.23,20.76c0.71,3.89-.26,7.16-3.42,9.71a23.14,23.14,0,0,0-5.56,6.45c0.05-.27.1-0.54,0.16-0.8s0.17-.61.27-0.92a16.4,16.4,0,0,1,5-7.76A9.34,9.34,0,0,0,66.23,20.76Z"/><path d="M55.81,54.22c4.25-.46,6.64.7,7.56,3.45a7.6,7.6,0,0,1-3.25,9.15,10,10,0,0,0,1.49-7.61C61,56.31,58.76,55.07,55.81,54.22Z"/><path d="M78.29,57.87c1.5-2,1.81-4.29,2-6.65,0.16-2.06.17-4.15,0.51-6.18A6.54,6.54,0,0,1,84,40.32c-1.93,3.46-2,7.23-2.2,11A9,9,0,0,1,78.29,57.87Z"/><path d="M46.67,69.39c1.69-6.08.24-8.8-4.45-8.34A3.89,3.89,0,0,1,46,59.72,4.77,4.77,0,0,1,49.29,64C49.47,66.26,48.29,68.69,46.67,69.39Z"/><path d="M60.86,35.57a34.06,34.06,0,0,1,3.74-3.45,8.23,8.23,0,0,0,3.75-6.26A7.15,7.15,0,0,1,65,33.35c-1.1.64-2.13,1.41-3.19,2.11-0.23.15-.47,0.29-0.7,0.43Z"/><path d="M32.73,21.53a15.1,15.1,0,0,0-1.71-10A9.52,9.52,0,0,1,32.84,1,15,15,0,0,1,34,0C38.81,6.07,39.37,15.51,32.73,21.53Z"/><path d="M3.59,44.48c-0.44,1.6-1.05,3.37-1.39,5.19a7.19,7.19,0,0,0,4,8c3.22,1.44,7.13.7,9.16-1.75a10.53,10.53,0,0,0,2.17-5.43c0-.2,0-0.39.07-0.59a0.5,0.5,0,0,1,.1-0.16,8.78,8.78,0,0,1-3.65,10.67C10.43,62.75,4.57,61.58,1.91,58-1.44,53.57-.08,48.07,3.59,44.48Z"/><path d="M39,15.78C38.26,22,36.2,27.7,31.51,32.11a15.88,15.88,0,0,1-6.4,3.61c-2.14.64-4.28,1.31-6.42,2A29.58,29.58,0,0,0,9,42.26l-0.18-.18,0.47-.35,0.54-.44a32.15,32.15,0,0,1,12.92-6.38,16.35,16.35,0,0,0,7.69-4.42,34.62,34.62,0,0,0,8.32-14.08C38.82,16.2,38.92,16,39,15.78Z"/><path d="M40.33,17.74A12.45,12.45,0,0,1,40,26.08a32.88,32.88,0,0,1-3.33,6.57,18.78,18.78,0,0,0-3,8.64c-0.17,1.41-.36,2.81-0.61,4.2a6.54,6.54,0,0,1-4.46,5.06,0.31,0.31,0,0,1,0-.16c2.87-2.26,3.25-5.5,3.48-8.8,0.16-2.33.18-4.72,1.26-6.85a19.38,19.38,0,0,1,2.66-4.24c3.16-3.53,4.23-7.73,4.39-12.29C40.31,18.06,40.32,17.9,40.33,17.74Z"/><path d="M33.88,48.62c2-2.57,2.39-5.56,2.5-8.65a12.89,12.89,0,0,1,3.42-8.53,9.68,9.68,0,0,0,3-6.69,8,8,0,0,1-.91,6.55,20.85,20.85,0,0,0-2.77,8.54C38.62,43.48,36.53,46.23,33.88,48.62Z"/><path d="M7.31,41.26a74,74,0,0,0,5.51-5.73,40,40,0,0,0,4.1-6.59,26.43,26.43,0,0,1,9-10.21c0.15-.1.32-0.17,0.54-0.28a42.58,42.58,0,0,0-3.68,4.42C21,25.58,19.53,28.46,18,31.26a26,26,0,0,1-10.67,10S7.16,41.22,7.31,41.26Z"/><path d="M6,45.65a7.35,7.35,0,0,0,1.78,4.71,4.59,4.59,0,0,1,1.06,4.32,1.64,1.64,0,0,1-2.95.8,6.6,6.6,0,0,1-1.76-5.82A6.69,6.69,0,0,1,6,45.65Z"/><path d="M20.14,53.33a37.21,37.21,0,0,0,0-4.67c-0.65-4.92-5.28-7.2-9.62-4.75A21.56,21.56,0,0,0,8,45.78c0.39-1.65,2.7-3.48,5.29-3.83,2.83-.38,5.42.15,7.15,2.72C22,47,21.89,50.66,20.14,53.33Z"/><path d="M17,34.6c1.51-2.41,3.3-4,6-4.51A28.66,28.66,0,0,0,26.57,29c-0.08,1.36-1.78,3.33-3.48,3.8-1.45.4-2.93,0.73-4.38,1.12A17.67,17.67,0,0,0,17,34.6Z"/><path d="M32.59,33.7A8.07,8.07,0,0,1,26.4,40a25.49,25.49,0,0,1-3.83.31,39.51,39.51,0,0,1-5.19-.17A29.09,29.09,0,0,1,22,39.33a12.37,12.37,0,0,0,8.65-3.53C31.32,35.18,31.88,34.49,32.59,33.7Z"/><path d="M29.52,14.71a7.76,7.76,0,0,1-2.82,8A19.1,19.1,0,0,0,22.11,28c0-.22.08-0.44,0.13-0.66s0.14-.51.22-0.76a13.54,13.54,0,0,1,4.11-6.41A7.71,7.71,0,0,0,29.52,14.71Z"/><path d="M20.92,42.33c3.51-.38,5.48.58,6.24,2.85a6.28,6.28,0,0,1-2.68,7.55,8.23,8.23,0,0,0,1.23-6.28C25.18,44.05,23.36,43,20.92,42.33Z"/><path d="M39.48,45.34a9.82,9.82,0,0,0,1.64-5.49c0.13-1.7.14-3.43,0.42-5.1a5.4,5.4,0,0,1,2.65-3.89c-1.59,2.86-1.64,6-1.81,9.08A7.42,7.42,0,0,1,39.48,45.34Z"/><path d="M13.38,54.85c1.39-5,.2-7.26-3.68-6.89a3.21,3.21,0,0,1,3.1-1.1,3.94,3.94,0,0,1,2.74,3.52C15.69,52.27,14.72,54.28,13.38,54.85Z"/><path d="M25.09,26.93a28.12,28.12,0,0,1,3.09-2.85,6.79,6.79,0,0,0,3.1-5.17,5.9,5.9,0,0,1-2.76,6.18c-0.91.53-1.76,1.16-2.63,1.75l-0.58.36Z"/></svg>