<svg id="Layer_1" data-name="Layer 1" xmlns="http://www.w3.org/2000/svg" width="39.98mm" height="23.25mm" viewBox="0 0 113.32 65.91"><title>icon__activities--self-drive</title><path d="M112.82,0.57l0.26,1.17a1,1,0,0,0-.12.33q0.29,14.54.6,29.09c0.09,4.47.23,8.94,0.27,13.41,0,1.77-.21,3.53-2,4.57a1.22,1.22,0,0,0-.18.85c0,2.71.11,5.43,0.13,8.14a1,1,0,0,1-.4.81,1,1,0,0,1-.92-0.26,1.61,1.61,0,0,1-.13-0.92c-0.06-2.58-.11-5.16-0.17-7.88l-2.5,1a5.88,5.88,0,0,1-.33-0.6c-1.55-3.9-3.09-7.8-4.64-11.69a5.2,5.2,0,0,0-5.06-3.54C94.54,35,91.46,35,88.39,35a5.7,5.7,0,0,0-5.83,4,46.29,46.29,0,0,1-2.13,5.47,5.8,5.8,0,0,1-5.76,3.72c-3.87,0-7.74-.07-11.61-0.1L52.94,48c0,1.4,0,2.7.07,4A0.88,0.88,0,0,1,52,53.07q-2.93-.07-5.86,0a1.07,1.07,0,0,1-1.24-1.23c0-1,0-2,0-3a0.79,0.79,0,0,0-1-1c-2.07,0-4.15,0-6.22-.05A6.26,6.26,0,0,1,31.49,44c-0.82-1.77-1.5-3.61-2.2-5.44a6.35,6.35,0,0,0-5.93-4.29c-3.51-.06-7-0.1-10.54-0.09a8.4,8.4,0,0,0-2.69.45,5.23,5.23,0,0,0-3,2.79C6.05,39.72,4.95,42,3.81,44.26c2.62,0.4,2.62.4,3.81-1.54A12.74,12.74,0,0,1,21.29,37c6.41,1.43,11.1,7.77,10.95,14.81-0.12,5.8-3.94,11.21-9,12.8a13.35,13.35,0,0,1-15-5.32A15.69,15.69,0,0,1,5.4,49.78c-0.51,0-1,0-1.38-.05l-3.3-.25-0.21-.94c0-.71.06-1.42,0-2.13,0-1.14-.19-2.31,1.61-2.07,0-1.18,0-2.21-.1-3.24a3,3,0,0,0-.37-0.91A4.65,4.65,0,0,1,1,38.74C0.93,36.35.91,34,.88,31.56a1.19,1.19,0,0,1,.24-0.87c0.85-.47.73-1.22,0.74-2a3.57,3.57,0,0,1,3.75-3.9L37.18,23c1.81-.1,2.27-0.62,2.32-2.45q0.13-4.54.28-9.09c0.06-1.9.11-3.8,0.17-5.77l-1.74-.09,1.3-2.55L40,3,45.63,3l-0.2,2.68-1.89.14-0.09,6.81a63.13,63.13,0,0,0,3.27-6.47,4,4,0,0,1,3.4-2.62c5.34-.8,10.67-1.69,16-2.51A56.27,56.27,0,0,1,74.43,0c11.49,0,23,.17,34.47.31C110.21,0.32,111.51.48,112.82,0.57Zm-46,9.79a1.42,1.42,0,0,0-1.68-1.22c-5,0-10-.07-14.95-0.13a1.64,1.64,0,0,0-1.69,1c-1.39,2.92-2.83,5.83-4.21,8.75-0.82,1.74,0,3.1,1.88,3.13C52.63,22,59.09,22,65.54,22.1A1.36,1.36,0,0,0,67,20.52c0-.76,0-1.51-0.05-2.27Q66.9,14.31,66.82,10.36Zm23.94,0.23a1.41,1.41,0,0,0-1.68-1.2L76,9.31c-1.34,0-1.61.25-1.59,1.6,0,3.27.13,6.54,0.18,9.81a1.33,1.33,0,0,0,1.46,1.49c1.08,0,2.15,0,3.23,0L89,22.35c1.66,0,2-.33,1.94-2,0-1,0-2,0-3Q90.84,14,90.76,10.59ZM26.34,49.4c-1-4.41-4.89-7.34-8.86-6.65-5.08.88-7.81,6.43-5.61,11.44,1.69,3.86,5.72,5.85,9.39,4.63A8,8,0,0,0,26.34,49.4ZM106.9,10.48a3.25,3.25,0,0,0-1.36-.86c-4.14-.12-8.29-0.14-12.43-0.17a1.24,1.24,0,0,0-1.36,1.45q0.11,5,.21,10a1.3,1.3,0,0,0,1.39,1.45q6.22,0.09,12.43.11a1.18,1.18,0,0,0,1.31-1.26C107.06,17.78,107,14.32,106.9,10.48Zm-5.24-7.07a1.92,1.92,0,0,0-2.25-1.8L77.19,1.36c-1.49,0-2.36.75-2.36,2.07a2.18,2.18,0,0,0,2.34,2.43Q88.29,6,99.41,6.09A2,2,0,0,0,101.66,3.41ZM43,15.73a1.77,1.77,0,0,0-.82-0.65,1.6,1.6,0,0,0-1,.82A7.6,7.6,0,0,0,40.53,18a23.3,23.3,0,0,0-.38,3.42c0,0.84,1,1.44,2,1.38s0.9-.87.9-1.51C43.07,19.5,43,17.75,43,15.73ZM66,31.46a1.19,1.19,0,0,0,.37-0.59,0.81,0.81,0,0,0-.61-0.49q-3.34-.12-6.69-0.12a0.79,0.79,0,0,0-.58.51,0.79,0.79,0,0,0,.5.6C61.29,31.43,63.56,31.44,66,31.46ZM38.16,41.17c0,0.61,0,1,0,1.39a0.79,0.79,0,0,0,1,1,14.89,14.89,0,0,0,2,0,1.29,1.29,0,0,0,.64-1c0.06-.51.38-1.33-0.56-1.4S39.23,41.16,38.16,41.17ZM37.69,26.35l3.85,0c-0.14-.9-0.12-2.1-0.37-2.16a7.87,7.87,0,0,0-3.16,0C37.8,24.22,37.81,25.45,37.69,26.35ZM10.63,29.13A2.76,2.76,0,0,0,11.15,28c-0.32-1.17-1.33-.39-2-0.59a2.46,2.46,0,0,0-.61.75Zm-7.8,1.43-0.53,0,0,2.3,0.58,0ZM2.46,39.87H3L3,37.61H2.47v2.25Z" transform="translate(-0.51)"/><path d="M89,37.8c5.15-1,9.18.08,12.59,3.31a15,15,0,0,1,3,17.8,12.72,12.72,0,0,1-19.32,4.2c-7.93-6.15-7.73-18.18.44-23.72A21.9,21.9,0,0,1,89,37.8Zm11.42,12.29c-1-4.26-4.51-7-8.42-6.65a7.83,7.83,0,0,0-6.87,7.82c-0.06,4.32,3.23,8.2,7.28,8.6C97.58,60.36,101.66,55.39,100.43,50.08Z" transform="translate(-0.51)"/><path d="M33.38,51.68l1.47,0.06L35,57.45c-1.32.46-1.39,0.41-1.43-.88C33.49,55,33.43,53.4,33.38,51.68Z" transform="translate(-0.51)"/><path d="M6.81,24.18c0-1-.07-1.91-0.09-2.79,0-1.44.54-2,2-2q11.55,0.09,23.1.22c1.65,0,2.21.94,1.83,3Z" transform="translate(-0.51)"/></svg>