<svg id="Layer_1" data-name="Layer 1" xmlns="http://www.w3.org/2000/svg" width="24.18mm" height="16.07mm" viewBox="0 0 68.55 45.56"><title>icon__activities--family-safaris</title><path d="M61.89,23.51c0.52,2.65,1,5.31,1.58,8,0.33,1.6.69,3.2,1.11,4.79,0.27,1-.1,1.29-1.06,1.23s-1.75,0-2.74,0C60.52,38.73,60.28,40,60,41.2c-0.17.78-.36,1.56-0.6,2.32-0.61,1.87-1.51,2.4-3.35,1.82A2.09,2.09,0,0,1,55,44.06c-0.62-2.1-1.11-4.24-1.71-6.6-0.84,0-1.87,0-2.89,0-0.76,0-1-.26-0.81-1,0.73-3.11,1.46-6.22,2.12-9.34a12.38,12.38,0,0,0,.19-3.73c-0.22.49-.45,1-0.66,1.46C50.08,27.43,49,30,47.85,32.65c-0.49,1.13-1,1.3-2,.67-2.08-1.25-4.15-2.53-6.46-3.93-0.16,2.08-.26,4-0.46,5.85-0.28,2.62-.56,5.25-1,7.84-0.37,2.17-.7,2.33-2.84,2.33-3,0-3.18,0-3.63-3-0.56-3.71-.8-7.46-1.18-11.2-0.06-.55-0.12-1.1-0.2-1.84-2.15,1.32-4.17,2.52-6.15,3.77-1.22.77-1.69,0.67-2.23-.69-1.14-2.85-2.27-5.71-3.6-8.56-0.09,1.31-.11,2.63-0.28,3.93q-0.92,7.36-1.93,14.72a6.4,6.4,0,0,1-.5,1.47,1.87,1.87,0,0,1-2.1,1.38,13.85,13.85,0,0,0-2.64,0,1.69,1.69,0,0,1-2-1.3,54.73,54.73,0,0,1-1.59-7c-0.5-4.12-.71-8.28-1-12.42A1.08,1.08,0,0,0,5.65,24c-0.26.63-.54,1.25-0.79,1.89-0.92,2.3-1.79,4.62-2.78,6.89a1.72,1.72,0,0,1-1.32.83C0,33.55-.08,32.85,0,32.2,0.84,28,1.71,23.81,2.41,19.6,3,16.3,5,14.77,8.09,14.15a17.46,17.46,0,0,1,9.45.52,5,5,0,0,1,3.62,3.93c0.75,3.92,1.56,7.83,2.35,11.74l0.2,1c0.72-.75,1.29-1.37,1.89-2,1.67-1.68,3.31-3.41,5.74-4,4.18-1,8-.5,11.21,2.71,1,1,2.1,2.07,3.22,3.17a2.93,2.93,0,0,0,.25-0.5q1.83-6.51,3.65-13A4.93,4.93,0,0,1,53,14.46a11.4,11.4,0,0,1,8.32.09,5.16,5.16,0,0,1,3.3,3.67c1.17,4.4,2.44,8.77,3.61,13.17,0.2,0.74.7,1.78-.45,2.18s-1.41-.73-1.74-1.49c-1.26-2.88-2.48-5.78-3.72-8.67Z"/><path d="M57.1,0A6.51,6.51,0,1,1,57,13a6.46,6.46,0,0,1-6.44-6.5A6.42,6.42,0,0,1,57.1,0Z"/><path d="M12,0A6.52,6.52,0,1,1,5.42,6.48,6.49,6.49,0,0,1,12,0Z"/><path d="M40.27,18.92a5.58,5.58,0,1,1-5.54-5.61A5.61,5.61,0,0,1,40.27,18.92Z"/></svg>