<svg id="Layer_1" data-name="Layer 1" xmlns="http://www.w3.org/2000/svg" xmlns:xlink="http://www.w3.org/1999/xlink" viewBox="0 0 244.06 70.73"><defs><style>.cls-1,.cls-4{fill:none;}.cls-2{fill:#fff;}.cls-3{clip-path:url(#clip-path);}.cls-4{stroke:#fff;stroke-miterlimit:10;stroke-width:0.83px;}</style><clipPath id="clip-path" transform="translate(0 0)"><rect class="cls-1" width="244.06" height="70.73"/></clipPath></defs><title>logo</title><rect class="cls-2" x="5.01" y="60.1" width="1.15" height="8.47"/><g class="cls-3"><path class="cls-2" d="M8.27,68.57v-6h.63a.26.26,0,0,1,.28.22l.08.65a3.35,3.35,0,0,1,.88-.7,2.29,2.29,0,0,1,1.12-.27,2.15,2.15,0,0,1,.87.16,1.67,1.67,0,0,1,.63.46,2,2,0,0,1,.38.72,3.12,3.12,0,0,1,.13.93v3.81H12.2V64.76a1.61,1.61,0,0,0-.31-1.06,1.15,1.15,0,0,0-.94-.38,1.78,1.78,0,0,0-.88.22,2.8,2.8,0,0,0-.74.61v4.41Z" transform="translate(0 0)"/><path class="cls-2" d="M16.92,68.67a1.44,1.44,0,0,1-1.09-.4,1.58,1.58,0,0,1-.38-1.14V63.46h-.72a.24.24,0,0,1-.16-.06.22.22,0,0,1-.07-.18v-.42l1-.12.24-1.85a.26.26,0,0,1,.08-.15.23.23,0,0,1,.16-.06h.53V62.7h1.73v.76H16.5v3.59a.76.76,0,0,0,.18.56.64.64,0,0,0,.47.18.85.85,0,0,0,.29,0l.21-.1.15-.1a.19.19,0,0,1,.11,0,.18.18,0,0,1,.15.1l.31.5a1.94,1.94,0,0,1-.66.4,2.22,2.22,0,0,1-.79.14" transform="translate(0 0)"/><path class="cls-2" d="M22.09,63.26a1.61,1.61,0,0,0-1.2.44,2.07,2.07,0,0,0-.54,1.22h3.27a2.08,2.08,0,0,0-.1-.67,1.51,1.51,0,0,0-.3-.53,1.35,1.35,0,0,0-.48-.34,1.62,1.62,0,0,0-.64-.12m0-.77a2.7,2.7,0,0,1,1,.18,2.26,2.26,0,0,1,.79.52,2.38,2.38,0,0,1,.52.84,3.2,3.2,0,0,1,.19,1.14.69.69,0,0,1-.05.33.22.22,0,0,1-.2.08h-4a3.29,3.29,0,0,0,.15,1,2,2,0,0,0,.39.7,1.56,1.56,0,0,0,.59.42,2,2,0,0,0,.77.14,2.25,2.25,0,0,0,.68-.09,3.21,3.21,0,0,0,.49-.2l.35-.2a.45.45,0,0,1,.24-.09.23.23,0,0,1,.2.1l.3.38a2,2,0,0,1-.47.41,2.9,2.9,0,0,1-.58.29,3.62,3.62,0,0,1-.64.17,3.86,3.86,0,0,1-.66.06A3,3,0,0,1,21,68.44a2.51,2.51,0,0,1-.9-.61,2.83,2.83,0,0,1-.59-1,4.07,4.07,0,0,1-.21-1.37,3.49,3.49,0,0,1,.19-1.17,2.76,2.76,0,0,1,.55-.94,2.53,2.53,0,0,1,.88-.63,2.88,2.88,0,0,1,1.17-.23" transform="translate(0 0)"/><path class="cls-2" d="M26.15,68.57v-6h.6a.33.33,0,0,1,.24.06.39.39,0,0,1,.09.22l.06.91a2.7,2.7,0,0,1,.7-1,1.53,1.53,0,0,1,1-.35,1.61,1.61,0,0,1,.36,0,1,1,0,0,1,.31.13l-.08.79a.17.17,0,0,1-.18.15l-.24,0a1.64,1.64,0,0,0-.36,0,1.42,1.42,0,0,0-.51.09,1.21,1.21,0,0,0-.4.25,1.7,1.7,0,0,0-.31.4,3.54,3.54,0,0,0-.25.54v3.78Z" transform="translate(0 0)"/><path class="cls-2" d="M30.75,68.57v-6h.63a.26.26,0,0,1,.28.22l.08.65a3.35,3.35,0,0,1,.88-.7,2.29,2.29,0,0,1,1.12-.27,2.15,2.15,0,0,1,.87.16,1.67,1.67,0,0,1,.63.46,2,2,0,0,1,.38.72,3.12,3.12,0,0,1,.13.93v3.81H34.68V64.76a1.61,1.61,0,0,0-.31-1.06,1.15,1.15,0,0,0-.94-.38,1.78,1.78,0,0,0-.88.22,2.8,2.8,0,0,0-.74.61v4.41Z" transform="translate(0 0)"/><path class="cls-2" d="M39.19,67.93a2.17,2.17,0,0,0,.51-.06,2,2,0,0,0,.43-.16,2.23,2.23,0,0,0,.39-.25,3.69,3.69,0,0,0,.36-.34V65.88a8.83,8.83,0,0,0-1.24.11,3.54,3.54,0,0,0-.83.24,1.15,1.15,0,0,0-.47.35.75.75,0,0,0-.15.45,1,1,0,0,0,.08.41.75.75,0,0,0,.21.28.84.84,0,0,0,.31.16,1.45,1.45,0,0,0,.39.05m2.26.64a.47.47,0,0,1-.24,0,.35.35,0,0,1-.13-.2L41,67.76a6,6,0,0,1-.46.38,2.71,2.71,0,0,1-.47.28,2.5,2.5,0,0,1-.53.18,2.92,2.92,0,0,1-.62.06,2.16,2.16,0,0,1-.66-.1,1.49,1.49,0,0,1-.53-.29,1.38,1.38,0,0,1-.36-.49,1.73,1.73,0,0,1-.13-.71,1.32,1.32,0,0,1,.19-.68,1.7,1.7,0,0,1,.63-.58,4.14,4.14,0,0,1,1.14-.42,8.73,8.73,0,0,1,1.73-.19v-.47a1.6,1.6,0,0,0-.3-1.06,1.09,1.09,0,0,0-.88-.36,1.9,1.9,0,0,0-.65.1,2.44,2.44,0,0,0-.45.22l-.33.22A.48.48,0,0,1,38,64a.3.3,0,0,1-.18-.06.54.54,0,0,1-.13-.14l-.19-.34a3.4,3.4,0,0,1,1.07-.71,3.29,3.29,0,0,1,1.27-.24,2.26,2.26,0,0,1,.89.17,1.82,1.82,0,0,1,.66.46,2,2,0,0,1,.4.72,3,3,0,0,1,.14.92v3.83Z" transform="translate(0 0)"/><path class="cls-2" d="M49.55,60.66a.68.68,0,0,1-.06.29.8.8,0,0,1-.17.23.8.8,0,0,1-.24.16.73.73,0,0,1-.29.06.7.7,0,0,1-.29-.06.76.76,0,0,1-.39-.39.69.69,0,0,1-.06-.29.74.74,0,0,1,.06-.29.78.78,0,0,1,.16-.24.73.73,0,0,1,.23-.16.69.69,0,0,1,.29-.06.71.71,0,0,1,.29.06.77.77,0,0,1,.24.16.82.82,0,0,1,.17.24.72.72,0,0,1,.06.29m-4,8a1.44,1.44,0,0,1-1.09-.4,1.58,1.58,0,0,1-.38-1.14V63.46h-.72a.24.24,0,0,1-.16-.06.22.22,0,0,1-.07-.18v-.42l1-.12.24-1.85a.26.26,0,0,1,.08-.15.23.23,0,0,1,.16-.06h.53V62.7h4.14v5.87H48.24V63.46H45.16v3.59a.76.76,0,0,0,.18.56.64.64,0,0,0,.47.18.85.85,0,0,0,.29,0l.21-.1.15-.1a.19.19,0,0,1,.11,0,.18.18,0,0,1,.15.1l.31.5a1.94,1.94,0,0,1-.66.4,2.22,2.22,0,0,1-.79.14" transform="translate(0 0)"/><path class="cls-2" d="M53.84,67.83a1.54,1.54,0,0,0,1.32-.59,3.38,3.38,0,0,0,0-3.32,1.54,1.54,0,0,0-1.32-.6,1.86,1.86,0,0,0-.78.15,1.45,1.45,0,0,0-.56.44,2,2,0,0,0-.33.71,3.8,3.8,0,0,0-.11,1,2.74,2.74,0,0,0,.44,1.66,1.56,1.56,0,0,0,1.34.59m0-5.34a3.05,3.05,0,0,1,1.18.22,2.54,2.54,0,0,1,.9.62,2.72,2.72,0,0,1,.57,1,4.2,4.2,0,0,1,0,2.55,2.73,2.73,0,0,1-.57,1,2.51,2.51,0,0,1-.9.62,3.09,3.09,0,0,1-1.18.22,3.13,3.13,0,0,1-1.19-.22,2.49,2.49,0,0,1-.9-.62,2.72,2.72,0,0,1-.57-1,4.2,4.2,0,0,1,0-2.55,2.71,2.71,0,0,1,.57-1,2.52,2.52,0,0,1,.9-.62,3.09,3.09,0,0,1,1.19-.22" transform="translate(0 0)"/><path class="cls-2" d="M58.31,68.57v-6h.63a.26.26,0,0,1,.28.22l.08.65a3.35,3.35,0,0,1,.88-.7,2.29,2.29,0,0,1,1.12-.27,2.15,2.15,0,0,1,.87.16,1.67,1.67,0,0,1,.63.46,2,2,0,0,1,.38.72,3.12,3.12,0,0,1,.13.93v3.81H62.24V64.76a1.61,1.61,0,0,0-.31-1.06,1.15,1.15,0,0,0-.94-.38,1.78,1.78,0,0,0-.88.22,2.8,2.8,0,0,0-.74.61v4.41Z" transform="translate(0 0)"/><path class="cls-2" d="M66.75,67.93a2.17,2.17,0,0,0,.51-.06,2,2,0,0,0,.43-.16,2.23,2.23,0,0,0,.39-.25,3.69,3.69,0,0,0,.36-.34V65.88a8.83,8.83,0,0,0-1.24.11,3.54,3.54,0,0,0-.83.24,1.15,1.15,0,0,0-.47.35.75.75,0,0,0-.14.45,1,1,0,0,0,.08.41.75.75,0,0,0,.21.28.84.84,0,0,0,.31.16,1.45,1.45,0,0,0,.39.05m2.26.64a.47.47,0,0,1-.24,0,.35.35,0,0,1-.13-.2l-.12-.56a6,6,0,0,1-.46.38,2.71,2.71,0,0,1-.47.28,2.5,2.5,0,0,1-.53.18,2.92,2.92,0,0,1-.62.06,2.16,2.16,0,0,1-.66-.1,1.49,1.49,0,0,1-.53-.29,1.38,1.38,0,0,1-.36-.49,1.73,1.73,0,0,1-.13-.71,1.32,1.32,0,0,1,.19-.68,1.7,1.7,0,0,1,.63-.58,4.14,4.14,0,0,1,1.14-.42,8.73,8.73,0,0,1,1.72-.19v-.47a1.6,1.6,0,0,0-.3-1.06,1.09,1.09,0,0,0-.88-.36,1.9,1.9,0,0,0-.65.1,2.44,2.44,0,0,0-.46.22l-.33.22a.48.48,0,0,1-.27.1.3.3,0,0,1-.18-.06.52.52,0,0,1-.13-.14l-.19-.34a3.4,3.4,0,0,1,1.07-.71,3.29,3.29,0,0,1,1.27-.24,2.26,2.26,0,0,1,.89.17,1.82,1.82,0,0,1,.66.46,2,2,0,0,1,.4.72,3,3,0,0,1,.14.92v3.83Z" transform="translate(0 0)"/></g><rect class="cls-2" x="71.41" y="59.87" width="1.05" height="8.71"/><g class="cls-3"><path class="cls-2" d="M82.36,61.43a.44.44,0,0,1-.12.13.26.26,0,0,1-.15,0,.42.42,0,0,1-.24-.1l-.34-.22a2.73,2.73,0,0,0-.49-.22,2.13,2.13,0,0,0-.69-.1,2,2,0,0,0-.68.1,1.46,1.46,0,0,0-.49.28,1.15,1.15,0,0,0-.3.42,1.32,1.32,0,0,0-.1.52,1,1,0,0,0,.17.59,1.49,1.49,0,0,0,.46.4,3.57,3.57,0,0,0,.65.29l.75.25q.38.13.74.29a2.66,2.66,0,0,1,.65.41,1.9,1.9,0,0,1,.46.61,2,2,0,0,1,.17.89,2.86,2.86,0,0,1-.19,1,2.39,2.39,0,0,1-.55.85,2.58,2.58,0,0,1-.89.57,3.28,3.28,0,0,1-1.2.21,3.66,3.66,0,0,1-1.5-.3,3.52,3.52,0,0,1-1.15-.81l.33-.54a.44.44,0,0,1,.11-.11.27.27,0,0,1,.15,0,.33.33,0,0,1,.17.06l.22.16.28.21a2.3,2.3,0,0,0,.36.21,2.52,2.52,0,0,0,.46.16,2.55,2.55,0,0,0,.58.06,2.18,2.18,0,0,0,.73-.11,1.53,1.53,0,0,0,.54-.32,1.37,1.37,0,0,0,.34-.49,1.63,1.63,0,0,0,.12-.63,1.06,1.06,0,0,0-.17-.63,1.44,1.44,0,0,0-.46-.41,3.21,3.21,0,0,0-.65-.28l-.74-.24c-.25-.08-.5-.18-.75-.28a2.39,2.39,0,0,1-.65-.41,1.9,1.9,0,0,1-.46-.63,2.44,2.44,0,0,1,0-1.81,2.22,2.22,0,0,1,.51-.74,2.49,2.49,0,0,1,.82-.52A3,3,0,0,1,80.32,60a3.55,3.55,0,0,1,1.29.23,3.06,3.06,0,0,1,1,.65Z" transform="translate(0 0)"/><path class="cls-2" d="M87,63.33a1.7,1.7,0,0,0-.9.24,2.62,2.62,0,0,0-.71.67v2.9a1.65,1.65,0,0,0,.63.55,1.83,1.83,0,0,0,.77.16,1.51,1.51,0,0,0,1.29-.6,2.79,2.79,0,0,0,.45-1.7,4.24,4.24,0,0,0-.1-1,2,2,0,0,0-.3-.69,1.17,1.17,0,0,0-.48-.39,1.59,1.59,0,0,0-.64-.12M84.36,70.6v-8H85a.26.26,0,0,1,.28.22l.09.71a3.2,3.2,0,0,1,.88-.75,2.25,2.25,0,0,1,1.13-.28,2.18,2.18,0,0,1,.94.2,1.92,1.92,0,0,1,.72.58,2.81,2.81,0,0,1,.46,1,4.94,4.94,0,0,1,.16,1.32,4.14,4.14,0,0,1-.18,1.23,3,3,0,0,1-.51,1,2.36,2.36,0,0,1-1.9.89,2.22,2.22,0,0,1-.94-.18,2.12,2.12,0,0,1-.69-.52V70.6Z" transform="translate(0 0)"/><path class="cls-2" d="M93.8,67.83a1.54,1.54,0,0,0,1.32-.59,3.38,3.38,0,0,0,0-3.32,1.54,1.54,0,0,0-1.32-.6,1.86,1.86,0,0,0-.78.15,1.45,1.45,0,0,0-.56.44,2,2,0,0,0-.33.71,3.8,3.8,0,0,0-.11,1,2.74,2.74,0,0,0,.44,1.66,1.56,1.56,0,0,0,1.34.59m0-5.34a3.05,3.05,0,0,1,1.18.22,2.54,2.54,0,0,1,.9.62,2.72,2.72,0,0,1,.57,1,4.2,4.2,0,0,1,0,2.55,2.73,2.73,0,0,1-.57,1,2.51,2.51,0,0,1-.9.62,3.09,3.09,0,0,1-1.18.22,3.13,3.13,0,0,1-1.19-.22,2.49,2.49,0,0,1-.9-.62,2.72,2.72,0,0,1-.57-1,4.2,4.2,0,0,1,0-2.55,2.71,2.71,0,0,1,.57-1,2.52,2.52,0,0,1,.9-.62,3.09,3.09,0,0,1,1.19-.22" transform="translate(0 0)"/><path class="cls-2" d="M98.28,68.57v-6h.6a.33.33,0,0,1,.24.06.39.39,0,0,1,.09.22l.07.91a2.7,2.7,0,0,1,.7-1,1.53,1.53,0,0,1,1-.35,1.61,1.61,0,0,1,.36,0,1,1,0,0,1,.31.13l-.08.79a.17.17,0,0,1-.18.15l-.24,0a1.64,1.64,0,0,0-.36,0,1.42,1.42,0,0,0-.51.09,1.21,1.21,0,0,0-.4.25,1.7,1.7,0,0,0-.31.4,3.53,3.53,0,0,0-.25.54v3.78Z" transform="translate(0 0)"/><path class="cls-2" d="M108.69,60.66a.68.68,0,0,1-.06.29.8.8,0,0,1-.17.23.8.8,0,0,1-.24.16.73.73,0,0,1-.29.06.7.7,0,0,1-.29-.06.76.76,0,0,1-.39-.39.69.69,0,0,1-.06-.29.74.74,0,0,1,.06-.29.78.78,0,0,1,.16-.24.73.73,0,0,1,.23-.16.69.69,0,0,1,.29-.06.71.71,0,0,1,.29.06.77.77,0,0,1,.24.16.82.82,0,0,1,.17.24.72.72,0,0,1,.06.29m-4,8a1.44,1.44,0,0,1-1.09-.4,1.58,1.58,0,0,1-.38-1.14V63.46h-.72a.24.24,0,0,1-.16-.06.22.22,0,0,1-.07-.18v-.42l1-.12.24-1.85a.26.26,0,0,1,.08-.15.23.23,0,0,1,.16-.06h.53V62.7h4.14v5.87h-1.05V63.46H104.3v3.59a.76.76,0,0,0,.18.56.64.64,0,0,0,.47.18.85.85,0,0,0,.29,0l.21-.1.15-.1a.19.19,0,0,1,.11,0,.18.18,0,0,1,.15.1l.31.5a1.94,1.94,0,0,1-.66.4,2.22,2.22,0,0,1-.79.14" transform="translate(0 0)"/><path class="cls-2" d="M110.45,68.57v-6h.63a.26.26,0,0,1,.28.22l.08.65a3.35,3.35,0,0,1,.88-.7,2.29,2.29,0,0,1,1.12-.27,2.15,2.15,0,0,1,.87.16,1.67,1.67,0,0,1,.63.46,2,2,0,0,1,.38.72,3.12,3.12,0,0,1,.13.93v3.81h-1.06V64.76a1.61,1.61,0,0,0-.31-1.06,1.15,1.15,0,0,0-.94-.38,1.78,1.78,0,0,0-.88.22,2.8,2.8,0,0,0-.74.61v4.41Z" transform="translate(0 0)"/><path class="cls-2" d="M119.43,65.65a1.63,1.63,0,0,0,.56-.09,1.13,1.13,0,0,0,.41-.25,1,1,0,0,0,.25-.38,1.39,1.39,0,0,0,.08-.49,1.16,1.16,0,0,0-.33-.87,1.61,1.61,0,0,0-1.94,0,1.16,1.16,0,0,0-.33.88,1.32,1.32,0,0,0,.09.49,1,1,0,0,0,.25.38,1.13,1.13,0,0,0,.41.25,1.63,1.63,0,0,0,.56.09m1.9,3.25a.51.51,0,0,0-.12-.36.84.84,0,0,0-.33-.21,2.18,2.18,0,0,0-.49-.11l-.59-.05-.63,0-.61-.06a1.68,1.68,0,0,0-.54.38.79.79,0,0,0-.21.55.72.72,0,0,0,.1.38.88.88,0,0,0,.32.3,1.85,1.85,0,0,0,.54.2,3.87,3.87,0,0,0,1.52,0,1.9,1.9,0,0,0,.57-.22,1.07,1.07,0,0,0,.36-.34.78.78,0,0,0,.12-.43m-1.9-6.41a3,3,0,0,1,.73.09,2.32,2.32,0,0,1,.61.25h1.63v.39c0,.13-.08.21-.25.25l-.68.09a1.82,1.82,0,0,1,.2.86,1.85,1.85,0,0,1-.17.8,1.83,1.83,0,0,1-.46.61,2.06,2.06,0,0,1-.71.39,2.88,2.88,0,0,1-.9.14,3,3,0,0,1-.8-.1,1,1,0,0,0-.29.25.46.46,0,0,0-.1.27.36.36,0,0,0,.17.32,1.26,1.26,0,0,0,.46.16,5.08,5.08,0,0,0,.65.06l.74,0a7.15,7.15,0,0,1,.75.09,2.23,2.23,0,0,1,.65.21,1.21,1.21,0,0,1,.46.41,1.19,1.19,0,0,1,.18.67,1.55,1.55,0,0,1-.19.74,2,2,0,0,1-.55.64,2.86,2.86,0,0,1-.88.45,3.84,3.84,0,0,1-1.18.17,4.49,4.49,0,0,1-1.15-.13,2.69,2.69,0,0,1-.82-.35,1.53,1.53,0,0,1-.49-.5,1.2,1.2,0,0,1-.16-.6,1.07,1.07,0,0,1,.28-.75,1.92,1.92,0,0,1,.76-.49,1.08,1.08,0,0,1-.42-.32.85.85,0,0,1-.15-.54.82.82,0,0,1,0-.27,1,1,0,0,1,.15-.28,1.55,1.55,0,0,1,.57-.48,1.89,1.89,0,0,1-.77-2.41,1.76,1.76,0,0,1,.47-.61,2.16,2.16,0,0,1,.72-.39,2.92,2.92,0,0,1,.91-.14" transform="translate(0 0)"/></g><polygon class="cls-2" points="132.73 60.1 132.73 61.06 129.99 61.06 129.99 68.57 128.85 68.57 128.85 61.06 126.1 61.06 126.1 60.1 132.73 60.1"/><g class="cls-3"><path class="cls-2" d="M132.73,68.57v-6h.6a.33.33,0,0,1,.24.06.39.39,0,0,1,.09.22l.07.91a2.7,2.7,0,0,1,.7-1,1.53,1.53,0,0,1,1-.35,1.6,1.6,0,0,1,.36,0,1,1,0,0,1,.31.13l-.08.79a.17.17,0,0,1-.18.15l-.24,0a1.64,1.64,0,0,0-.36,0,1.42,1.42,0,0,0-.51.09,1.23,1.23,0,0,0-.4.25,1.72,1.72,0,0,0-.31.4,3.53,3.53,0,0,0-.25.54v3.78Z" transform="translate(0 0)"/><path class="cls-2" d="M138.78,67.93a2.18,2.18,0,0,0,.51-.06,2,2,0,0,0,.43-.16,2.23,2.23,0,0,0,.39-.25,3.69,3.69,0,0,0,.36-.34V65.88a8.83,8.83,0,0,0-1.24.11,3.54,3.54,0,0,0-.83.24,1.15,1.15,0,0,0-.47.35.75.75,0,0,0-.15.45,1,1,0,0,0,.08.41.75.75,0,0,0,.21.28.84.84,0,0,0,.31.16,1.45,1.45,0,0,0,.39.05m2.26.64a.46.46,0,0,1-.24,0,.34.34,0,0,1-.13-.2l-.12-.56q-.24.21-.46.38a2.71,2.71,0,0,1-.47.28,2.51,2.51,0,0,1-.52.18,2.93,2.93,0,0,1-.62.06,2.15,2.15,0,0,1-.66-.1,1.5,1.5,0,0,1-.54-.29,1.38,1.38,0,0,1-.36-.49,1.73,1.73,0,0,1-.13-.71,1.32,1.32,0,0,1,.2-.68,1.71,1.71,0,0,1,.63-.58,4.14,4.14,0,0,1,1.14-.42,8.74,8.74,0,0,1,1.72-.19v-.47a1.6,1.6,0,0,0-.3-1.06,1.09,1.09,0,0,0-.88-.36,1.9,1.9,0,0,0-.65.1,2.44,2.44,0,0,0-.46.22l-.33.22a.48.48,0,0,1-.27.1.3.3,0,0,1-.18-.06.52.52,0,0,1-.13-.14l-.19-.34a3.41,3.41,0,0,1,1.07-.71,3.29,3.29,0,0,1,1.27-.24,2.26,2.26,0,0,1,.89.17,1.82,1.82,0,0,1,.66.46,2,2,0,0,1,.4.72,3,3,0,0,1,.14.92v3.83Z" transform="translate(0 0)"/><path class="cls-2" d="M142.58,62.58h.86a.34.34,0,0,1,.21.07.33.33,0,0,1,.11.15l1.52,3.85c0,.15.09.29.12.43l.1.41.1-.41c0-.14.08-.28.13-.43l1.54-3.85a.35.35,0,0,1,.12-.16.31.31,0,0,1,.2-.06h.82l-2.44,6H145Z" transform="translate(0 0)"/><path class="cls-2" d="M152,63.26a1.61,1.61,0,0,0-1.2.44,2.07,2.07,0,0,0-.54,1.22h3.27a2.08,2.08,0,0,0-.1-.67,1.51,1.51,0,0,0-.3-.53,1.35,1.35,0,0,0-.48-.34,1.62,1.62,0,0,0-.64-.12m0-.77a2.7,2.7,0,0,1,1,.18,2.26,2.26,0,0,1,.79.52,2.4,2.4,0,0,1,.52.84,3.2,3.2,0,0,1,.19,1.14.69.69,0,0,1-.05.33.22.22,0,0,1-.2.08h-4a3.35,3.35,0,0,0,.15,1,2,2,0,0,0,.39.7,1.56,1.56,0,0,0,.59.42,2,2,0,0,0,.77.14,2.25,2.25,0,0,0,.68-.09,3.25,3.25,0,0,0,.49-.2l.35-.2a.45.45,0,0,1,.24-.09.23.23,0,0,1,.2.1l.3.38a2,2,0,0,1-.47.41,2.9,2.9,0,0,1-.58.29,3.62,3.62,0,0,1-.64.17,3.86,3.86,0,0,1-.66.06,3,3,0,0,1-1.14-.21,2.52,2.52,0,0,1-.9-.61,2.83,2.83,0,0,1-.59-1,4.07,4.07,0,0,1-.21-1.37,3.48,3.48,0,0,1,.19-1.17,2.76,2.76,0,0,1,.55-.94,2.53,2.53,0,0,1,.88-.63,2.88,2.88,0,0,1,1.17-.23" transform="translate(0 0)"/></g><rect class="cls-2" x="156.08" y="59.87" width="1.05" height="8.71"/><g class="cls-3"><path class="cls-2" d="M11.47,44.56q1.32-1.83,2.92-4.37a51.36,51.36,0,0,0,4.24-7.46,38.54,38.54,0,0,0-5.49,6.16,31.39,31.39,0,0,0-4.72,7.93Q7.94,48,8.51,48q.3,0,.65-.47,1-1.12,2.31-3M9.68,48a2.24,2.24,0,0,1-.45.41,4.59,4.59,0,0,1-.8.45,3.35,3.35,0,0,1-1.34.56q-.35,0-.35-.95,0-2.54,4.67-8.62,1.86-2.46,3.87-4.68t4.22-4.33q1-1.81,1.73-3.69t1.43-3.81a19.7,19.7,0,0,0,1.17-5.17,2.4,2.4,0,0,0-.67-2,3.23,3.23,0,0,0-2.27-.34q-4.67.52-12.16,6.38Q.93,28.33.93,32.13q0,.69,1.08,1.08a3.57,3.57,0,0,0,1.47.26c.4-.06.61,0,.61.09s-.23.24-.69.39a2.16,2.16,0,0,1-1.47,0,2.34,2.34,0,0,1-1-.91,2.69,2.69,0,0,1-.52-1.59q0-2.67,4-6.73A43.2,43.2,0,0,1,13,18.16q5-3,7.79-3.19a4.27,4.27,0,0,1,2.68,1,2.81,2.81,0,0,1,1.34,2.24,19.19,19.19,0,0,1-.91,4.5,62.22,62.22,0,0,1-2.34,6.23q5.5-4.78,7.66-4.78a2,2,0,0,1,1.51.71,1.91,1.91,0,0,1,.56,1.53q-.65,5.09-6,16.12c-.23.49-.13.73.3.73a.73.73,0,0,0,.61-.43A119,119,0,0,1,37.59,30.23q9-8.66,12.77-8.88a1.88,1.88,0,0,1,1.82,1.25A5.34,5.34,0,0,1,52.78,25a1.41,1.41,0,0,1-.22.95q-2.42,3.84-4,6.53T46,36.74q-4.37,7.93-5.15,13.06a1.26,1.26,0,0,0,0,.3v.3q0,1.68,1.34,1.38a7.62,7.62,0,0,0,1.45-.62,15.44,15.44,0,0,0,1.93-1.27,17.39,17.39,0,0,0,3-2.8c.26-.34.46-.52.61-.52a.12.12,0,0,1,.13.13,1.45,1.45,0,0,1-.35.73,15.19,15.19,0,0,1-2.81,2.93,13.31,13.31,0,0,1-2.1,1.55,8.77,8.77,0,0,1-1.84.82q-.74.22-1.39-.82a3.76,3.76,0,0,1-.69-2.11q0-3.79,3.81-11.9,1.56-3.19,3.38-6.47t4-6.64a3.11,3.11,0,0,0,.48-.88,2.38,2.38,0,0,0,.13-.71q0-.95-1.3-.95a4.73,4.73,0,0,0-1.21.17q-3.85,1-12.38,9.35a137,137,0,0,0-13.2,14.83,1.59,1.59,0,0,1-1.34.56c-.46,0-.69-.14-.69-.43a.46.46,0,0,1,0-.15l.07-.19q3.76-7.11,5.86-12.11a42.52,42.52,0,0,0,2.66-8q.17-1.42-1-1.42-1.69,0-4.85,2.46a23.93,23.93,0,0,0-4.15,3.84Q14.48,42.86,9.68,48" transform="translate(0 0)"/><path class="cls-4" d="M11.47,44.56q1.32-1.83,2.92-4.37a51.36,51.36,0,0,0,4.24-7.46,38.54,38.54,0,0,0-5.49,6.16,31.39,31.39,0,0,0-4.72,7.93Q7.94,48,8.51,48q.3,0,.65-.47Q10.15,46.4,11.47,44.56ZM9.68,48a2.24,2.24,0,0,1-.45.41,4.59,4.59,0,0,1-.8.45,3.35,3.35,0,0,1-1.34.56q-.35,0-.35-.95,0-2.54,4.67-8.62,1.86-2.46,3.87-4.68t4.22-4.33q1-1.81,1.73-3.69t1.43-3.81a19.7,19.7,0,0,0,1.17-5.17,2.4,2.4,0,0,0-.67-2,3.23,3.23,0,0,0-2.27-.34q-4.67.52-12.16,6.38Q.93,28.33.93,32.13q0,.69,1.08,1.08a3.57,3.57,0,0,0,1.47.26c.4-.06.61,0,.61.09s-.23.24-.69.39a2.16,2.16,0,0,1-1.47,0,2.34,2.34,0,0,1-1-.91,2.69,2.69,0,0,1-.52-1.59q0-2.67,4-6.73A43.2,43.2,0,0,1,13,18.16q5-3,7.79-3.19a4.27,4.27,0,0,1,2.68,1,2.81,2.81,0,0,1,1.34,2.24,19.19,19.19,0,0,1-.91,4.5,62.22,62.22,0,0,1-2.34,6.23q5.5-4.78,7.66-4.78a2,2,0,0,1,1.51.71,1.91,1.91,0,0,1,.56,1.53q-.65,5.09-6,16.12c-.23.49-.13.73.3.73a.73.73,0,0,0,.61-.43A119,119,0,0,1,37.59,30.23q9-8.66,12.77-8.88a1.88,1.88,0,0,1,1.82,1.25A5.34,5.34,0,0,1,52.78,25a1.41,1.41,0,0,1-.22.95q-2.42,3.84-4,6.53T46,36.74q-4.37,7.93-5.15,13.06a1.26,1.26,0,0,0,0,.3v.3q0,1.68,1.34,1.38a7.62,7.62,0,0,0,1.45-.62,15.44,15.44,0,0,0,1.93-1.27,17.39,17.39,0,0,0,3-2.8c.26-.34.46-.52.61-.52a.12.12,0,0,1,.13.13,1.45,1.45,0,0,1-.35.73,15.19,15.19,0,0,1-2.81,2.93,13.31,13.31,0,0,1-2.1,1.55,8.77,8.77,0,0,1-1.84.82q-.74.22-1.39-.82a3.76,3.76,0,0,1-.69-2.11q0-3.79,3.81-11.9,1.56-3.19,3.38-6.47t4-6.64a3.11,3.11,0,0,0,.48-.88,2.38,2.38,0,0,0,.13-.71q0-.95-1.3-.95a4.73,4.73,0,0,0-1.21.17q-3.85,1-12.38,9.35a137,137,0,0,0-13.2,14.83,1.59,1.59,0,0,1-1.34.56c-.46,0-.69-.14-.69-.43a.46.46,0,0,1,0-.15l.07-.19q3.76-7.11,5.86-12.11a42.52,42.52,0,0,0,2.66-8q.17-1.42-1-1.42-1.69,0-4.85,2.46a23.93,23.93,0,0,0-4.15,3.84Q14.48,42.86,9.68,48Z" transform="translate(0 0)"/><path class="cls-2" d="M62.15,49.55a.45.45,0,0,1,0-.42,73.91,73.91,0,0,0,5.59-9.74A2.94,2.94,0,0,0,68,38.33a2.37,2.37,0,0,0-.13-.46.51.51,0,0,1,0-.3A28.85,28.85,0,0,0,71.1,35.8a.17.17,0,0,1,.17-.08.41.41,0,0,1,.3.67q-1.36,1.86-2.31,3.23a19.73,19.73,0,0,0-1.42,2.3,1,1,0,0,0-.13.42q0,.21.47,0a1.3,1.3,0,0,0,.51-.34A30,30,0,0,1,73,38a19.7,19.7,0,0,1,4.24-2.83,4.55,4.55,0,0,1,1.95.25.12.12,0,0,1,0,.09.77.77,0,0,1-.15.36,2.54,2.54,0,0,1-.34.42,1.55,1.55,0,0,1-.4.29.33.33,0,0,1-.34,0,2.69,2.69,0,0,0-2.29.38Q69.4,40.4,64.49,48.41c0,.08-.11.18-.34.3s-.48.19-.76.32a8.81,8.81,0,0,0-1,.53q-.21.25-.25,0" transform="translate(0 0)"/><path class="cls-4" d="M62.15,49.55a.45.45,0,0,1,0-.42,73.91,73.91,0,0,0,5.59-9.74A2.94,2.94,0,0,0,68,38.33a2.37,2.37,0,0,0-.13-.46.51.51,0,0,1,0-.3A28.85,28.85,0,0,0,71.1,35.8a.17.17,0,0,1,.17-.08.41.41,0,0,1,.3.67q-1.36,1.86-2.31,3.23a19.73,19.73,0,0,0-1.42,2.3,1,1,0,0,0-.13.42q0,.21.47,0a1.3,1.3,0,0,0,.51-.34A30,30,0,0,1,73,38a19.7,19.7,0,0,1,4.24-2.83,4.55,4.55,0,0,1,1.95.25.12.12,0,0,1,0,.09.77.77,0,0,1-.15.36,2.54,2.54,0,0,1-.34.42,1.55,1.55,0,0,1-.4.29.33.33,0,0,1-.34,0,2.69,2.69,0,0,0-2.29.38Q69.4,40.4,64.49,48.41c0,.08-.11.18-.34.3s-.48.19-.76.32a8.81,8.81,0,0,0-1,.53Q62.2,49.8,62.15,49.55Z" transform="translate(0 0)"/><path class="cls-2" d="M87.94,29.62l1.67,0a66.22,66.22,0,0,0,14.77-1.73,71.46,71.46,0,0,0,18.23-7.19q9-5.24,9-11,0-3.68-3.64-6.23A14.45,14.45,0,0,0,119.53.89a15.83,15.83,0,0,0-6.19,1.26A42.64,42.64,0,0,0,99.4,12a91.26,91.26,0,0,0-13,17.56l1.54.06m-1.28-2.68,1.56-2.49A10.75,10.75,0,0,0,83,27.61a1,1,0,0,0-.35.82q0,.69,1,.82.6.13,1,.17l.5,0,1.6-2.53m5,7q0-1.26-1.47-1-1.3.17-4.63,2.34a25.83,25.83,0,0,0-3.72,2.9l.22.54a5.58,5.58,0,0,0,.39.76,2.24,2.24,0,0,0,.56,0,10.16,10.16,0,0,0,1.54-.13,10.57,10.57,0,0,0,1.84-.48q1-.35,1.86-.69a6.23,6.23,0,0,0,1.39-.78q2.16-1.64,2-3.46m-4-3.59q-.65,0-1.26,0a1.53,1.53,0,0,1-.37.13,1.67,1.67,0,0,0-.37.13q-.56,1.13-1.54,2.79l-2.36,4Q90,31.46,92.94,31.46q1.26,0,1.39,1a5.67,5.67,0,0,1-.56,2.12A9.47,9.47,0,0,1,89,38.39a15.84,15.84,0,0,1-6.5,1.51,33.32,33.32,0,0,0,3.1,4.48A42.86,42.86,0,0,0,90,49q5.41,5,9.66,6.28a4.81,4.81,0,0,0,1.34.22,4,4,0,0,0,4-2.34q.13-.3.3-.22a.18.18,0,0,1,0,.13.48.48,0,0,0,0,.22,10.55,10.55,0,0,1-.89,1.52,5.35,5.35,0,0,1-1.45,1.39,9.76,9.76,0,0,1-2.12-.13,10.83,10.83,0,0,1-1.43-.28l-.82-.24Q90.87,53.41,80.52,40.6A29,29,0,0,0,78.74,44q-.91,2-2,4.61c-.06.15-.14.22-.26.22s-.29-.23-.43-.69a1.13,1.13,0,0,1,0-.35q1.17-2.94,2-5t1.49-3.31a2.13,2.13,0,0,1,0-1.73.86.86,0,0,1,1-.47l2.25-3.85q1-1.77,1.95-3.25h-.17a4.59,4.59,0,0,0-.54-.06,4.7,4.7,0,0,1-.71-.11,1.84,1.84,0,0,1-1.08-.78A2.14,2.14,0,0,1,81.82,28a1.06,1.06,0,0,1,.3-.78,9.66,9.66,0,0,1,2.69-1.93A16.51,16.51,0,0,1,88.48,24,79,79,0,0,1,100.63,9.33,36.48,36.48,0,0,1,113,1.58,20.69,20.69,0,0,1,119.75.41a14.36,14.36,0,0,1,9.31,3.07,9.47,9.47,0,0,1,3.51,7.27,9.7,9.7,0,0,1-2.21,6,18.3,18.3,0,0,1-7.14,5.41q-17.41,8.18-34.3,8.18Z" transform="translate(0 0)"/><path class="cls-4" d="M87.94,29.62l1.67,0a66.22,66.22,0,0,0,14.77-1.73,71.46,71.46,0,0,0,18.23-7.19q9-5.24,9-11,0-3.68-3.64-6.23A14.45,14.45,0,0,0,119.53.89a15.83,15.83,0,0,0-6.19,1.26A42.64,42.64,0,0,0,99.4,12a91.26,91.26,0,0,0-13,17.56Zm-1.28-2.68,1.56-2.49A10.75,10.75,0,0,0,83,27.61a1,1,0,0,0-.35.82q0,.69,1,.82.6.13,1,.17l.5,0Zm5,7q0-1.26-1.47-1-1.3.17-4.63,2.34a25.83,25.83,0,0,0-3.72,2.9l.22.54a5.58,5.58,0,0,0,.39.76,2.24,2.24,0,0,0,.56,0,10.16,10.16,0,0,0,1.54-.13,10.57,10.57,0,0,0,1.84-.48q1-.35,1.86-.69a6.23,6.23,0,0,0,1.39-.78Q91.77,35.79,91.65,34Zm-4-3.59q-.65,0-1.26,0a1.53,1.53,0,0,1-.37.13,1.67,1.67,0,0,0-.37.13q-.56,1.13-1.54,2.79l-2.36,4Q90,31.46,92.94,31.46q1.26,0,1.39,1a5.67,5.67,0,0,1-.56,2.12A9.47,9.47,0,0,1,89,38.39a15.84,15.84,0,0,1-6.5,1.51,33.32,33.32,0,0,0,3.1,4.48A42.86,42.86,0,0,0,90,49q5.41,5,9.66,6.28a4.81,4.81,0,0,0,1.34.22,4,4,0,0,0,4-2.34q.13-.3.3-.22a.18.18,0,0,1,0,.13.48.48,0,0,0,0,.22,10.55,10.55,0,0,1-.89,1.52,5.35,5.35,0,0,1-1.45,1.39,9.76,9.76,0,0,1-2.12-.13,10.83,10.83,0,0,1-1.43-.28l-.82-.24Q90.87,53.41,80.52,40.6A29,29,0,0,0,78.74,44q-.91,2-2,4.61c-.06.15-.14.22-.26.22s-.29-.23-.43-.69a1.13,1.13,0,0,1,0-.35q1.17-2.94,2-5t1.49-3.31a2.13,2.13,0,0,1,0-1.73.86.86,0,0,1,1-.47l2.25-3.85q1-1.77,1.95-3.25h-.17a4.59,4.59,0,0,0-.54-.06,4.7,4.7,0,0,1-.71-.11,1.84,1.84,0,0,1-1.08-.78A2.14,2.14,0,0,1,81.82,28a1.06,1.06,0,0,1,.3-.78,9.66,9.66,0,0,1,2.69-1.93A16.51,16.51,0,0,1,88.48,24,79,79,0,0,1,100.63,9.33,36.48,36.48,0,0,1,113,1.58,20.69,20.69,0,0,1,119.75.41a14.36,14.36,0,0,1,9.31,3.07,9.47,9.47,0,0,1,3.51,7.27,9.7,9.7,0,0,1-2.21,6,18.3,18.3,0,0,1-7.14,5.41q-17.41,8.18-34.3,8.18Z" transform="translate(0 0)"/><path class="cls-2" d="M137.11,30.32q-2,2.89-3.86,5.82a74.42,74.42,0,0,0-4.47,7.5q-1.4,2.85-1.27,4,0,.43-.78.43t-.91-.52q-.65-2.07,13.85-22.51a.85.85,0,0,0,.22-1,.71.71,0,0,1-.09-.22c0-.26.11-.39.35-.39a.62.62,0,0,1,.43.22q.65.69.43.91-1.94,2.93-3.9,5.82m-2.78,8.45a.62.62,0,0,1,.45.19,2.94,2.94,0,0,0,1,.45,12.83,12.83,0,0,0,2.91-.17q1.58-.26,3.51-.78a26.33,26.33,0,0,0,6.43-2.72q4.53-2.76,4.53-7.29a9.72,9.72,0,0,0-3.75-7.55,21.09,21.09,0,0,0-8.37-4.18,39.74,39.74,0,0,0-11.21-1.55,37.26,37.26,0,0,0-5.18.34,34.15,34.15,0,0,0-4.7,1q-4.23,1.29-4.23,4.66a6.26,6.26,0,0,0,.6,2.59q.34.69.65,1.38s0,0-.13,0-.25-.11-.47-.34a5.05,5.05,0,0,1-1.29-3.54q0-3.88,4.66-5.39a34,34,0,0,1,10.4-1.47,42.76,42.76,0,0,1,11.34,1.47,24.62,24.62,0,0,1,8.71,4q4.61,3.58,4.62,8.11,0,5.13-5.78,8.37a28.09,28.09,0,0,1-5.78,2.37,36.59,36.59,0,0,1-3.8.95,25.56,25.56,0,0,1-3.54.43c-.2,0-.27.19-.22.56a26.4,26.4,0,0,0,1.81,5.48,17.1,17.1,0,0,0,3,5.09,4.11,4.11,0,0,0,2.76,1.47,3.1,3.1,0,0,0,1.12-.22l.28-.06.19,0c.11.06.16.1.13.13s-.14.22-.35.3a3.48,3.48,0,0,1-1.77.47,5.65,5.65,0,0,1-3.24-1.42q-1.25-1-3.71-5.82t-2.46-6.38q0-.9.86-.91" transform="translate(0 0)"/><path class="cls-4" d="M137.11,30.32q-2,2.89-3.86,5.82a74.42,74.42,0,0,0-4.47,7.5q-1.4,2.85-1.27,4,0,.43-.78.43t-.91-.52q-.65-2.07,13.85-22.51a.85.85,0,0,0,.22-1,.71.71,0,0,1-.09-.22c0-.26.11-.39.35-.39a.62.62,0,0,1,.43.22q.65.69.43.91Q139.08,27.43,137.11,30.32Zm-2.78,8.45a.62.62,0,0,1,.45.19,2.94,2.94,0,0,0,1,.45,12.83,12.83,0,0,0,2.91-.17q1.58-.26,3.51-.78a26.33,26.33,0,0,0,6.43-2.72q4.53-2.76,4.53-7.29a9.72,9.72,0,0,0-3.75-7.55,21.09,21.09,0,0,0-8.37-4.18,39.74,39.74,0,0,0-11.21-1.55,37.26,37.26,0,0,0-5.18.34,34.15,34.15,0,0,0-4.7,1q-4.23,1.29-4.23,4.66a6.26,6.26,0,0,0,.6,2.59q.34.69.65,1.38s0,0-.13,0-.25-.11-.47-.34a5.05,5.05,0,0,1-1.29-3.54q0-3.88,4.66-5.39a34,34,0,0,1,10.4-1.47,42.76,42.76,0,0,1,11.34,1.47,24.62,24.62,0,0,1,8.71,4q4.61,3.58,4.62,8.11,0,5.13-5.78,8.37a28.09,28.09,0,0,1-5.78,2.37,36.59,36.59,0,0,1-3.8.95,25.56,25.56,0,0,1-3.54.43c-.2,0-.27.19-.22.56a26.4,26.4,0,0,0,1.81,5.48,17.1,17.1,0,0,0,3,5.09,4.11,4.11,0,0,0,2.76,1.47,3.1,3.1,0,0,0,1.12-.22l.28-.06.19,0c.11.06.16.1.13.13s-.14.22-.35.3a3.48,3.48,0,0,1-1.77.47,5.65,5.65,0,0,1-3.24-1.42q-1.25-1-3.71-5.82t-2.46-6.38Q133.47,38.77,134.33,38.77Z" transform="translate(0 0)"/><path class="cls-2" d="M208.78,48.41q0,1,1.36.76Q213,48.7,217.06,45q4.24-3.76,4.88-6.84.3-1.27-1.61-1.48a8,8,0,0,0-1.91,0,6.87,6.87,0,0,0-1.66.4c-.06,0-.3.1-.72.38a28.49,28.49,0,0,0-7,10,1.91,1.91,0,0,0-.26.93m.21,1.25a2,2,0,0,1-.62-.32,2,2,0,0,1-.47-.51,1.13,1.13,0,0,1-.19-.63q.08-3.5,5.69-10.34c.11-.2.09-.32-.09-.38a7.64,7.64,0,0,1-.76-.49c-.25-.18-.38-.36-.38-.53a.72.72,0,0,1,.13-.34q.13-.21,1.1-.25l1.61,0a1.06,1.06,0,0,0,.47-.17,3,3,0,0,1,1.87-.93,3.57,3.57,0,0,1,1.91.76l.15.08.15.08,2.36.08,3.16.09c.42.06.64.11.64.17s-.21.25-.64.25q-1.32,0-1.7.51a.21.21,0,0,0,0,.25l.08.25a.71.71,0,0,1,0,.21,7.25,7.25,0,0,1-1.38,3.44,21,21,0,0,1-3.8,4q-5,4.26-8.7,4.81a1.47,1.47,0,0,1-.64-.06" transform="translate(0 0)"/><path class="cls-4" d="M208.78,48.41q0,1,1.36.76Q213,48.7,217.06,45q4.24-3.76,4.88-6.84.3-1.27-1.61-1.48a8,8,0,0,0-1.91,0,6.87,6.87,0,0,0-1.66.4c-.06,0-.3.1-.72.38a28.49,28.49,0,0,0-7,10A1.91,1.91,0,0,0,208.78,48.41Zm.21,1.25a2,2,0,0,1-.62-.32,2,2,0,0,1-.47-.51,1.13,1.13,0,0,1-.19-.63q.08-3.5,5.69-10.34c.11-.2.09-.32-.09-.38a7.64,7.64,0,0,1-.76-.49c-.25-.18-.38-.36-.38-.53a.72.72,0,0,1,.13-.34q.13-.21,1.1-.25l1.61,0a1.06,1.06,0,0,0,.47-.17,3,3,0,0,1,1.87-.93,3.57,3.57,0,0,1,1.91.76l.15.08.15.08,2.36.08,3.16.09c.42.06.64.11.64.17s-.21.25-.64.25q-1.32,0-1.7.51a.21.21,0,0,0,0,.25l.08.25a.71.71,0,0,1,0,.21,7.25,7.25,0,0,1-1.38,3.44,21,21,0,0,1-3.8,4q-5,4.26-8.7,4.81A1.47,1.47,0,0,1,209,49.65Z" transform="translate(0 0)"/><path class="cls-2" d="M220.14,48c-.11-.11-.09-.34.09-.68a50,50,0,0,1,3.33-5.68q1.11-1.71,2.09-3.06t1.84-2.37a.94.94,0,0,1,.36-.34,2.42,2.42,0,0,1,.71-.21c.17,0,.27,0,.3,0a.41.41,0,0,1-.13.3,31.51,31.51,0,0,0-2.8,3.74,29.42,29.42,0,0,0-2,3.78.86.86,0,0,0-.17.56c0,.31.11.47.34.47a.7.7,0,0,0,.51-.3q1.2-1.15,2.5-2.29t2.67-2.24a22.65,22.65,0,0,1,4.32-3,3.65,3.65,0,0,1,1.07-.68,1.83,1.83,0,0,1,1.5-.17q.6.21,0,1a48.82,48.82,0,0,0-5.47,9,23.78,23.78,0,0,0-2.52,8,3.8,3.8,0,0,0,.81,3,3.11,3.11,0,0,0,2.35.94,4.24,4.24,0,0,0,1.24-.17,18.08,18.08,0,0,0,6.11-3.8q4.06-3.46,4.06-5.55a.85.85,0,0,0-.19-.62,1,1,0,0,0-.45-.26,2,2,0,0,0-.47-.06c-.11,0-.17,0-.17-.13s.12-.31.36-.43a1.58,1.58,0,0,1,.66-.17c.48,0,.73.33.73,1a4.14,4.14,0,0,1-.26,1.24A9.25,9.25,0,0,1,242,51.42a23.69,23.69,0,0,1-2.48,2.86,14.82,14.82,0,0,1-8.89,4.57,3.32,3.32,0,0,1-2.82-.94,5.12,5.12,0,0,1-1-4,21.6,21.6,0,0,1,2.69-7.74q1-2,2.07-3.78t2.33-3.53a.69.69,0,0,0,.13-.43c0-.46-.26-.68-.77-.68a1.29,1.29,0,0,0-.68.21,41.74,41.74,0,0,0-4.85,4,71.78,71.78,0,0,0-4.94,5.26,4,4,0,0,1-2.18.94c-.31.06-.48,0-.51-.17" transform="translate(0 0)"/><path class="cls-4" d="M220.14,48c-.11-.11-.09-.34.09-.68a50,50,0,0,1,3.33-5.68q1.11-1.71,2.09-3.06t1.84-2.37a.94.94,0,0,1,.36-.34,2.42,2.42,0,0,1,.71-.21c.17,0,.27,0,.3,0a.41.41,0,0,1-.13.3,31.51,31.51,0,0,0-2.8,3.74,29.42,29.42,0,0,0-2,3.78.86.86,0,0,0-.17.56c0,.31.11.47.34.47a.7.7,0,0,0,.51-.3q1.2-1.15,2.5-2.29t2.67-2.24a22.65,22.65,0,0,1,4.32-3,3.65,3.65,0,0,1,1.07-.68,1.83,1.83,0,0,1,1.5-.17q.6.21,0,1a48.82,48.82,0,0,0-5.47,9,23.78,23.78,0,0,0-2.52,8,3.8,3.8,0,0,0,.81,3,3.11,3.11,0,0,0,2.35.94,4.24,4.24,0,0,0,1.24-.17,18.08,18.08,0,0,0,6.11-3.8q4.06-3.46,4.06-5.55a.85.85,0,0,0-.19-.62,1,1,0,0,0-.45-.26,2,2,0,0,0-.47-.06c-.11,0-.17,0-.17-.13s.12-.31.36-.43a1.58,1.58,0,0,1,.66-.17c.48,0,.73.33.73,1a4.14,4.14,0,0,1-.26,1.24A9.25,9.25,0,0,1,242,51.42a23.69,23.69,0,0,1-2.48,2.86,14.82,14.82,0,0,1-8.89,4.57,3.32,3.32,0,0,1-2.82-.94,5.12,5.12,0,0,1-1-4,21.6,21.6,0,0,1,2.69-7.74q1-2,2.07-3.78t2.33-3.53a.69.69,0,0,0,.13-.43c0-.46-.26-.68-.77-.68a1.29,1.29,0,0,0-.68.21,41.74,41.74,0,0,0-4.85,4,71.78,71.78,0,0,0-4.94,5.26,4,4,0,0,1-2.18.94C220.33,48.23,220.16,48.17,220.14,48Z" transform="translate(0 0)"/><path class="cls-2" d="M63.43,36.52a76.47,76.47,0,0,1-5.65,6.13,31.61,31.61,0,0,1-5,4,1.22,1.22,0,0,1-.64.21c-.51,0-.76-.34-.76-1a2.83,2.83,0,0,1,.17-1A18.37,18.37,0,0,1,53.12,42a28.71,28.71,0,0,1,2.44-3.1q3.06-3.35,5.06-3.86a4.09,4.09,0,0,1,1-.13,2.33,2.33,0,0,1,1.4.4,1.11,1.11,0,0,1,.55.87.4.4,0,0,1-.13.3m4-2.76a.36.36,0,0,0-.3-.21.34.34,0,0,0-.25.08,1.72,1.72,0,0,1-1.11.55,2.93,2.93,0,0,1-.81,0,9.14,9.14,0,0,0-1-.28,5,5,0,0,0-1-.11,4,4,0,0,0-.91.11c-.3.07-.57.15-.83.23a18.78,18.78,0,0,0-3.57,2,31.14,31.14,0,0,0-4.08,3.5q-4.72,4.71-4.72,7.72,0,1.48,1.06,1.48a1.92,1.92,0,0,0,1-.34,49.08,49.08,0,0,0,6.42-4.71q1.87-1.61,3.29-3A30.57,30.57,0,0,0,63,38.22c.06-.06.1-.09.13-.09.23,0,.24.16,0,.47q-.72,1.1-1.42,2.42t-1.42,2.84q-.6,1.27-1.19,2.93T58,50.11l-.06.21c.19,1.33,1,0,1,0,.16-.48.32-.95.49-1.44q.7-2,1.55-3.9a30.49,30.49,0,0,1,1.74-3.41q1.15-1.91,2.36-3.75t2.44-3.75c0-.06,0-.16-.08-.3" transform="translate(0 0)"/><path class="cls-4" d="M63.43,36.52a76.47,76.47,0,0,1-5.65,6.13,31.61,31.61,0,0,1-5,4,1.22,1.22,0,0,1-.64.21c-.51,0-.76-.34-.76-1a2.83,2.83,0,0,1,.17-1A18.37,18.37,0,0,1,53.12,42a28.71,28.71,0,0,1,2.44-3.1q3.06-3.35,5.06-3.86a4.09,4.09,0,0,1,1-.13,2.33,2.33,0,0,1,1.4.4,1.11,1.11,0,0,1,.55.87A.4.4,0,0,1,63.43,36.52Zm4-2.76a.36.36,0,0,0-.3-.21.34.34,0,0,0-.25.08,1.72,1.72,0,0,1-1.11.55,2.93,2.93,0,0,1-.81,0,9.14,9.14,0,0,0-1-.28,5,5,0,0,0-1-.11,4,4,0,0,0-.91.11c-.3.07-.57.15-.83.23a18.78,18.78,0,0,0-3.57,2,31.14,31.14,0,0,0-4.08,3.5q-4.72,4.71-4.72,7.72,0,1.48,1.06,1.48a1.92,1.92,0,0,0,1-.34,49.08,49.08,0,0,0,6.42-4.71q1.87-1.61,3.29-3A30.57,30.57,0,0,0,63,38.22c.06-.06.1-.09.13-.09.23,0,.24.16,0,.47q-.72,1.1-1.42,2.42t-1.42,2.84q-.6,1.27-1.19,2.93T58,50.11l-.06.21c.19,1.33,1,0,1,0,.16-.48.32-.95.49-1.44q.7-2,1.55-3.9a30.49,30.49,0,0,1,1.74-3.41q1.15-1.91,2.36-3.75t2.44-3.75C67.54,34,67.51,33.9,67.42,33.76Z" transform="translate(0 0)"/><path class="cls-2" d="M160.33,36.52a76.65,76.65,0,0,1-5.65,6.13,31.61,31.61,0,0,1-5,4,1.22,1.22,0,0,1-.64.21c-.51,0-.76-.34-.76-1a2.83,2.83,0,0,1,.17-1A18.37,18.37,0,0,1,150,42a28.71,28.71,0,0,1,2.44-3.1q3.06-3.35,5.06-3.86a4.09,4.09,0,0,1,1-.13,2.33,2.33,0,0,1,1.4.4,1.11,1.11,0,0,1,.55.87.4.4,0,0,1-.13.3m4-2.76a.36.36,0,0,0-.3-.21.34.34,0,0,0-.26.08,1.72,1.72,0,0,1-1.1.55,2.93,2.93,0,0,1-.81,0,9.14,9.14,0,0,0-1-.28,5,5,0,0,0-1-.11,4,4,0,0,0-.91.11c-.3.07-.57.15-.83.23a18.78,18.78,0,0,0-3.57,2,31.15,31.15,0,0,0-4.08,3.5q-4.72,4.71-4.72,7.72,0,1.48,1.06,1.48a1.92,1.92,0,0,0,1-.34,49.08,49.08,0,0,0,6.42-4.71q1.87-1.61,3.29-3a30.57,30.57,0,0,0,2.44-2.59c.06-.06.1-.09.13-.09.23,0,.24.16,0,.47q-.72,1.1-1.42,2.42t-1.42,2.84q-.6,1.27-1.19,2.93t-1.1,3.33l-.06.21c.19,1.33,1,0,1,0,.16-.48.32-.95.49-1.44q.7-2,1.55-3.9a30.49,30.49,0,0,1,1.74-3.41q1.15-1.91,2.36-3.75t2.44-3.75c0-.06,0-.16-.08-.3" transform="translate(0 0)"/><path class="cls-4" d="M160.33,36.52a76.65,76.65,0,0,1-5.65,6.13,31.61,31.61,0,0,1-5,4,1.22,1.22,0,0,1-.64.21c-.51,0-.76-.34-.76-1a2.83,2.83,0,0,1,.17-1A18.37,18.37,0,0,1,150,42a28.71,28.71,0,0,1,2.44-3.1q3.06-3.35,5.06-3.86a4.09,4.09,0,0,1,1-.13,2.33,2.33,0,0,1,1.4.4,1.11,1.11,0,0,1,.55.87A.4.4,0,0,1,160.33,36.52Zm4-2.76a.36.36,0,0,0-.3-.21.34.34,0,0,0-.26.08,1.72,1.72,0,0,1-1.1.55,2.93,2.93,0,0,1-.81,0,9.14,9.14,0,0,0-1-.28,5,5,0,0,0-1-.11,4,4,0,0,0-.91.11c-.3.07-.57.15-.83.23a18.78,18.78,0,0,0-3.57,2,31.15,31.15,0,0,0-4.08,3.5q-4.72,4.71-4.72,7.72,0,1.48,1.06,1.48a1.92,1.92,0,0,0,1-.34,49.08,49.08,0,0,0,6.42-4.71q1.87-1.61,3.29-3a30.57,30.57,0,0,0,2.44-2.59c.06-.06.1-.09.13-.09.23,0,.24.16,0,.47q-.72,1.1-1.42,2.42t-1.42,2.84q-.6,1.27-1.19,2.93t-1.1,3.33l-.06.21c.19,1.33,1,0,1,0,.16-.48.32-.95.49-1.44q.7-2,1.55-3.9a30.49,30.49,0,0,1,1.74-3.41q1.15-1.91,2.36-3.75t2.44-3.75C164.44,34,164.41,33.9,164.32,33.76Z" transform="translate(0 0)"/><path class="cls-2" d="M180.7,37.54a1.58,1.58,0,0,1,.86-.38c.4,0,.6.24.6.71a2.49,2.49,0,0,1-.3,1.13,30,30,0,0,1-5,8.1,3.31,3.31,0,0,0-.07.41c3.59.55,2.91-1.48,2.91-1.48a.43.43,0,0,1,0-.06,1.83,1.83,0,0,1,.43-1q1.5-2.4,2.63-4.47t2-3.93l.45-.52q.19-.23.36-.4.17-.88-.56-.88a1.08,1.08,0,0,0-.47.13,31,31,0,0,0-4.77,2.84,66.14,66.14,0,0,0-5.59,4.47.59.59,0,0,1-.43.17q-.39,0-.39-.46a1.29,1.29,0,0,1,.26-.71q.94-1.8,1.43-2.9a4.61,4.61,0,0,0,.49-1.51.58.58,0,0,0-.43-.63q-1.2-.38-3.9,1.26a32,32,0,0,0-6.25,4.83.71.71,0,0,1-.47.25q-.47,0,.09-1a24.41,24.41,0,0,1,3-4.16,13.64,13.64,0,0,1,1.76-1.89q.34-.25.17-.38a.82.82,0,0,0-.69.06,2.81,2.81,0,0,0-.73.4,22.74,22.74,0,0,0-1.67,1.89q-1,1.22-2.23,3t-2.18,3.17a29.3,29.3,0,0,0-1.54,2.54,3.06,3.06,0,0,0-.47,1,1.7,1.7,0,0,0,0,.55c0,.14.09.2.17.17a1.37,1.37,0,0,1,.34-.21,7,7,0,0,1,.73-.29,2.47,2.47,0,0,0,1-.55q.73-1,1.33-1.83t1.07-1.28a36.88,36.88,0,0,1,4.28-4,21.54,21.54,0,0,1,1.88-1.49,10.73,10.73,0,0,1,1.2-.74,2.08,2.08,0,0,1,.56-.13q.64,0,.64.76a1.92,1.92,0,0,1-.17.8,19.63,19.63,0,0,1-1.43,3.3,38,38,0,0,1-2.21,3.55q-.17.21.11.5c.19.2.36.25.54.17a5.51,5.51,0,0,1,.56-.27l.9-.4a2.65,2.65,0,0,0,1-.59q1.8-2.52,8.22-7.56" transform="translate(0 0)"/><path class="cls-4" d="M180.7,37.54a1.58,1.58,0,0,1,.86-.38c.4,0,.6.24.6.71a2.49,2.49,0,0,1-.3,1.13,30,30,0,0,1-5,8.1,3.31,3.31,0,0,0-.07.41c3.59.55,2.91-1.48,2.91-1.48a.43.43,0,0,1,0-.06,1.83,1.83,0,0,1,.43-1q1.5-2.4,2.63-4.47t2-3.93l.45-.52q.19-.23.36-.4.17-.88-.56-.88a1.08,1.08,0,0,0-.47.13,31,31,0,0,0-4.77,2.84,66.14,66.14,0,0,0-5.59,4.47.59.59,0,0,1-.43.17q-.39,0-.39-.46a1.29,1.29,0,0,1,.26-.71q.94-1.8,1.43-2.9a4.61,4.61,0,0,0,.49-1.51.58.58,0,0,0-.43-.63q-1.2-.38-3.9,1.26a32,32,0,0,0-6.25,4.83.71.71,0,0,1-.47.25q-.47,0,.09-1a24.41,24.41,0,0,1,3-4.16,13.64,13.64,0,0,1,1.76-1.89q.34-.25.17-.38a.82.82,0,0,0-.69.06,2.81,2.81,0,0,0-.73.4,22.74,22.74,0,0,0-1.67,1.89q-1,1.22-2.23,3t-2.18,3.17a29.3,29.3,0,0,0-1.54,2.54,3.06,3.06,0,0,0-.47,1,1.7,1.7,0,0,0,0,.55c0,.14.09.2.17.17a1.37,1.37,0,0,1,.34-.21,7,7,0,0,1,.73-.29,2.47,2.47,0,0,0,1-.55q.73-1,1.33-1.83t1.07-1.28a36.88,36.88,0,0,1,4.28-4,21.54,21.54,0,0,1,1.88-1.49,10.73,10.73,0,0,1,1.2-.74,2.08,2.08,0,0,1,.56-.13q.64,0,.64.76a1.92,1.92,0,0,1-.17.8,19.63,19.63,0,0,1-1.43,3.3,38,38,0,0,1-2.21,3.55q-.17.21.11.5c.19.2.36.25.54.17a5.51,5.51,0,0,1,.56-.27l.9-.4a2.65,2.65,0,0,0,1-.59Q174.27,42.58,180.7,37.54Z" transform="translate(0 0)"/><path class="cls-2" d="M204.64,41.67a.55.55,0,0,0-.3,0,60.66,60.66,0,0,0-6,1.43,8.9,8.9,0,0,0,2-5q0-2.85-3.09-2.85a11.73,11.73,0,0,0-2.49.3,21.34,21.34,0,0,0-3.14,1q1.63-2.85,3.12-5.14t2.77-4.19q.26-.39.39-.43a.2.2,0,0,0,.13-.22q0-.3-.56-.13a3.67,3.67,0,0,0-1.55.86q-2.23,3.37-3.87,5.87l-2.71,4.15q-2,.82-2.28,1.55-.13.52.73,1.3-.95,1.68-1.83,3.39t-1.83,3.35q-.51.87-.86,1.56l-.64,1.32q-.3.63-.62,1.25c-.21.42-1.47,3.31-1.7,3.84s-.43,1-.6,1.45q-1,2.11-1.91,4.25t-1.87,4.21c-.73,1.62-2.21,3.6-2.21,4.58s1,.5,1,.5a139.76,139.76,0,0,0,6.11-13.37l.69-1.73c.23-.58,2.64-6.39,3.44-7.84s1.55-2.7,2.26-3.74,1.36-2,2-2.76a26.27,26.27,0,0,0,1.74-2.59,20.49,20.49,0,0,1,2.9-1.3A7.13,7.13,0,0,1,196,36.1q2.58,0,2.58,2.33a7.87,7.87,0,0,1-2.19,5.22q-4.12,1.38-6.45,2.23a20.87,20.87,0,0,0-2.88,1.19.59.59,0,0,0-.17.43q0,.91.9.82a15.68,15.68,0,0,0,9.15-4q2.19-.73,4-1.32t3.35-1a.64.64,0,0,0,.3-.17s0-.07,0-.13" transform="translate(0 0)"/><path class="cls-4" d="M204.64,41.67a.55.55,0,0,0-.3,0,60.66,60.66,0,0,0-6,1.43,8.9,8.9,0,0,0,2-5q0-2.85-3.09-2.85a11.73,11.73,0,0,0-2.49.3,21.34,21.34,0,0,0-3.14,1q1.63-2.85,3.12-5.14t2.77-4.19q.26-.39.39-.43a.2.2,0,0,0,.13-.22q0-.3-.56-.13a3.67,3.67,0,0,0-1.55.86q-2.23,3.37-3.87,5.87l-2.71,4.15q-2,.82-2.28,1.55-.13.52.73,1.3-.95,1.68-1.83,3.39t-1.83,3.35q-.51.87-.86,1.56l-.64,1.32q-.3.63-.62,1.25c-.21.42-1.47,3.31-1.7,3.84s-.43,1-.6,1.45q-1,2.11-1.91,4.25t-1.87,4.21c-.73,1.62-2.21,3.6-2.21,4.58s1,.5,1,.5a139.76,139.76,0,0,0,6.11-13.37l.69-1.73c.23-.58,2.64-6.39,3.44-7.84s1.55-2.7,2.26-3.74,1.36-2,2-2.76a26.27,26.27,0,0,0,1.74-2.59,20.49,20.49,0,0,1,2.9-1.3A7.13,7.13,0,0,1,196,36.1q2.58,0,2.58,2.33a7.87,7.87,0,0,1-2.19,5.22q-4.12,1.38-6.45,2.23a20.87,20.87,0,0,0-2.88,1.19.59.59,0,0,0-.17.43q0,.91.9.82a15.68,15.68,0,0,0,9.15-4q2.19-.73,4-1.32t3.35-1a.64.64,0,0,0,.3-.17S204.67,41.73,204.64,41.67Z" transform="translate(0 0)"/><path class="cls-2" d="M202.06,53.59a106.31,106.31,0,0,1,4.39-10.39q1.93-3.89,4-7.21t4.3-6.69a1.49,1.49,0,0,1,1.07-.69l7.2-.41q3.16-.19,5.6-.28a.84.84,0,0,0,.62-.41,1.46,1.46,0,0,0,.24-.45.75.75,0,0,0-.52-.13l-1.74,0-3.93,0H217q-1,0-.3-1Q226,13,230.07,12.19q.43-.13.43-.3c0-.26-.16-.39-.47-.39a2.42,2.42,0,0,0-1,.19q-.45.19-1.48.54a9.35,9.35,0,0,0-2.4,1.12q-3,3.46-5.67,6.67a60.78,60.78,0,0,0-4.77,6.46.19.19,0,0,0,0,.26c.09.09.07.13,0,.13a29.91,29.91,0,0,0-3.2.13q-1.14.13-1.27.39-.34.74,1.2,1.34a1.33,1.33,0,0,1,.77,1.21,1.86,1.86,0,0,1-.51,1.29,83.62,83.62,0,0,0-4.38,7.21q-2.19,4-4.38,9c-1,2.33-2.57,5-2.57,6.5s1.67-.38,1.67-.38" transform="translate(0 0)"/><path class="cls-4" d="M202.06,53.59a106.31,106.31,0,0,1,4.39-10.39q1.93-3.89,4-7.21t4.3-6.69a1.49,1.49,0,0,1,1.07-.69l7.2-.41q3.16-.19,5.6-.28a.84.84,0,0,0,.62-.41,1.46,1.46,0,0,0,.24-.45.75.75,0,0,0-.52-.13l-1.74,0-3.93,0H217q-1,0-.3-1Q226,13,230.07,12.19q.43-.13.43-.3c0-.26-.16-.39-.47-.39a2.42,2.42,0,0,0-1,.19q-.45.19-1.48.54a9.35,9.35,0,0,0-2.4,1.12q-3,3.46-5.67,6.67a60.78,60.78,0,0,0-4.77,6.46.19.19,0,0,0,0,.26c.09.09.07.13,0,.13a29.91,29.91,0,0,0-3.2.13q-1.14.13-1.27.39-.34.74,1.2,1.34a1.33,1.33,0,0,1,.77,1.21,1.86,1.86,0,0,1-.51,1.29,83.62,83.62,0,0,0-4.38,7.21q-2.19,4-4.38,9c-1,2.33-2.57,5-2.57,6.5S202.06,53.59,202.06,53.59Z" transform="translate(0 0)"/></g></svg>